<?xml version="1.0" encoding="utf-8"?>
<!-- Generator: Adobe Illustrator 25.0.0, SVG Export Plug-In . SVG Version: 6.00 Build 0)  -->
<svg version="1.1" id="Layer_2" xmlns="http://www.w3.org/2000/svg" xmlns:xlink="http://www.w3.org/1999/xlink" x="0px" y="0px"
	 viewBox="0 0 1024 1024" style="enable-background:new 0 0 1024 1024;" xml:space="preserve">
<style type="text/css">
	.st0{fill:#FFFFFF;}
	.st1{fill:#231F20;}
	.st2{fill:#3A3532;}
	.st3{fill:#D04E46;}
	.st4{fill:#56484E;}
	.st5{fill:#B23330;}
	.st6{fill:#EAE6E9;}
	.st7{fill:#3D3836;}
	.st8{opacity:0.3;fill:#3A3532;}
	.st9{fill:#010000;}
	.st10{fill:#B5A99E;}
	.st11{fill:#383433;}
	.st12{fill:#CDC8C9;}
	.st13{opacity:0.5;fill:#FFFFFF;}
	.st14{fill:#232220;}
	.st15{fill:none;stroke:#949496;stroke-width:1.3342;stroke-miterlimit:10;}
	.st16{fill:#0A0806;}
	.st17{fill:#020100;}
	.st18{fill:#8C0C0C;}
	.st19{fill:#1F1E1E;}
	.st20{fill:#700909;}
	.st21{fill:#170912;}
	.st22{fill:#1E1D14;}
	.st23{fill:#94856F;}
	.st24{fill:#BFAF99;}
	.st25{fill:#776854;}
	.st26{fill:#413724;}
	.st27{fill:#130800;}
	.st28{opacity:0.3;}
	.st29{fill:#110A00;}
	.st30{fill:#3E3A27;}
	.st31{fill:#BDB6B4;}
	.st32{fill:#5F5D5C;}
	.st33{fill:none;stroke:#170912;stroke-width:1.0172;stroke-miterlimit:10;}
	.st34{fill:#2B2824;}
	.st35{fill:#605C57;}
	.st36{fill:#35272E;}
	.st37{fill:#1F1E20;}
	.st38{fill:#2E2E2C;}
	.st39{fill:#9D9493;}
	.st40{fill:#49423E;}
	.st41{fill:#D7D3D3;}
	.st42{opacity:0.5;fill:#626660;}
	.st43{fill:#16110F;}
	.st44{fill:#595552;}
	.st45{fill:none;stroke:#231F20;stroke-width:0.6671;stroke-miterlimit:10;}
	.st46{fill:#775D53;}
	.st47{fill:none;stroke:#775D53;stroke-width:1.3342;stroke-miterlimit:10;}
	.st48{fill:#513830;}
	.st49{fill:none;stroke:#775D53;stroke-width:2.0013;stroke-linecap:round;stroke-miterlimit:10;}
	.st50{fill:#47403C;}
	.st51{fill:#B3ABA2;}
	.st52{fill:#CCC7C2;}
	.st53{opacity:0.3;fill:#FFFFFF;}
	.st54{fill:#7C7269;}
	.st55{fill:#949496;}
	.st56{fill:#BBB6BA;}
	.st57{fill:#9B919A;}
	.st58{fill:#3C3C37;}
	.st59{fill:#282822;}
	.st60{fill:#5E5F55;}
	.st61{fill:#2D2421;}
	.st62{fill:#8C736D;}
	.st63{fill:#C1C1C1;}
	.st64{opacity:0.3;fill:#C1C1C1;}
	.st65{opacity:0.5;fill:#C1C1C1;}
</style>
<rect x="0" class="st0" width="1024" height="1024"/>
<g>
	<rect x="0" y="954" class="st1" width="1024" height="70"/>
	<g>
		<g>
			<g>
				<g>
					<path class="st0" d="M274.3,977.8c-2.9-2.2-6.7-3.3-11.2-3.3h-5.8v25.6h5.6c4.6,0,8.4-1.1,11.3-3.3c2.9-2.2,4.4-5.4,4.4-9.6
						C278.7,983.1,277.3,979.9,274.3,977.8z M274.2,991.9c-0.7,1.2-1.7,2.3-2.9,3.1c-1.2,0.8-2.6,1.3-4.2,1.7
						c-1.6,0.3-3.3,0.5-5.1,0.5h-1.2v-19.7h1.2c1.9,0,3.6,0.2,5.1,0.5c1.5,0.3,2.9,0.9,4.2,1.6s2.2,1.8,2.9,3c0.7,1.3,1,2.9,1,4.7
						C275.3,989.1,274.9,990.7,274.2,991.9z"/>
					<path class="st0" d="M297,992.1c0-2.5-0.7-4.5-2.1-6.1c-1.4-1.6-3.4-2.4-6-2.4c-2.7,0-4.8,0.8-6.2,2.4
						c-1.5,1.6-2.2,3.7-2.2,6.2c0,2.4,0.8,4.4,2.3,6c1.5,1.6,3.6,2.4,6.2,2.4c1.7,0,3.3-0.4,4.7-1.2c1.4-0.8,2.5-1.8,3.4-3.2
						l-2.8-1.4c-0.7,1-1.4,1.8-2.2,2.3c-0.8,0.5-1.8,0.8-3,0.8c-1.5,0-2.8-0.5-3.7-1.6c-0.9-1-1.4-2.3-1.5-3.7H297V992.1z
						 M284,990.3c0.1-0.6,0.3-1.1,0.6-1.6c0.3-0.5,0.6-0.9,1.1-1.3c0.4-0.4,0.9-0.6,1.5-0.8s1.1-0.3,1.8-0.3c1.3,0,2.4,0.4,3.2,1.1
						c0.8,0.7,1.3,1.7,1.5,2.9H284z"/>
					<path class="st0" d="M309.8,992.6c-0.7-0.7-1.7-1.3-2.9-1.8c-0.1,0-0.2-0.1-0.3-0.1c-0.1,0-0.3-0.1-0.5-0.2
						c-0.4-0.2-0.7-0.3-0.8-0.4c-0.2-0.1-0.4-0.2-0.8-0.3c-0.5-0.2-0.9-0.5-1.2-0.8c-0.3-0.3-0.4-0.6-0.4-1c0-0.4,0.2-0.8,0.5-1.1
						c0.4-0.3,0.8-0.5,1.3-0.5c1,0,1.7,0.5,2.2,1.4l2.7-1.3c-1-1.9-2.6-2.8-4.7-2.8c-1.4,0-2.6,0.5-3.6,1.4c-1,0.9-1.5,2-1.5,3.3
						c0,0.5,0.1,0.9,0.2,1.3c0.1,0.4,0.3,0.7,0.6,1c0.3,0.3,0.6,0.6,1,0.9c0.4,0.3,0.9,0.5,1.5,0.8l3.2,1.6c0.6,0.4,1,0.8,1.1,1.3
						c0.1,0.5,0.1,0.9-0.1,1.3c-0.2,0.4-0.5,0.7-1,1c-0.4,0.3-0.9,0.4-1.4,0.4c-1.3,0-2.3-0.7-3.1-2l-2.8,1.2c0.2,0.5,0.5,1,0.9,1.5
						c0.4,0.4,0.9,0.8,1.4,1.1c0.5,0.3,1.1,0.6,1.7,0.7c0.6,0.2,1.3,0.3,1.9,0.3c1.6,0,3-0.5,4.2-1.5c1.2-1,1.8-2.3,1.8-3.8
						C310.8,994.2,310.5,993.3,309.8,992.6z"/>
					<path class="st0" d="M318.1,975.4c-0.4-0.4-1-0.6-1.6-0.6c-0.6,0-1.2,0.2-1.6,0.6c-0.4,0.4-0.7,0.9-0.7,1.5
						c0,0.6,0.2,1.1,0.7,1.5s1,0.6,1.6,0.6c0.6,0,1.2-0.2,1.6-0.6s0.7-0.9,0.7-1.5C318.8,976.3,318.5,975.8,318.1,975.4z
						 M314.8,984.2v15.9h3.3v-15.9H314.8z"/>
					<path class="st0" d="M336.3,984.2v2.7h-0.1c-1.5-2.1-3.5-3.2-6-3.2c-2.4,0-4.4,0.8-5.9,2.5c-1.5,1.6-2.3,3.6-2.3,5.8
						c0,2.4,0.7,4.4,2.2,6.1c1.5,1.7,3.5,2.5,6.1,2.5c1.2,0,2.3-0.3,3.3-0.8c1-0.5,1.9-1.3,2.6-2.2h0.1v3c0,1.8-0.3,3.3-1,4.3
						c-0.7,1-2,1.5-3.9,1.5c-1.5,0-2.8-0.4-3.8-1.2c-1-0.8-1.4-1.9-1.4-3.3h-3.3c0,2.2,0.8,4,2.4,5.2c1.5,1.3,3.5,1.9,6,1.9
						c3.2,0,5.3-0.8,6.6-2.4c1.2-1.7,1.9-4,1.9-7v-15.6H336.3z M335,996.2c-1,1.1-2.3,1.7-4.1,1.7c-1.7,0-3-0.6-4-1.7
						c-1-1.1-1.5-2.5-1.5-4.1c0-1.6,0.5-2.9,1.5-4c1-1.1,2.3-1.7,4-1.7c1.8,0,3.1,0.6,4.1,1.7c1,1.1,1.5,2.4,1.5,4
						C336.5,993.7,336,995.1,335,996.2z"/>
					<path class="st0" d="M358.4,987.7c-0.2-0.8-0.6-1.6-1-2.1c-0.5-0.6-1.1-1-1.9-1.4c-0.8-0.3-1.8-0.5-2.9-0.5
						c-1.1,0-2.1,0.2-3.1,0.7c-0.9,0.5-1.7,1.1-2.1,1.9h-0.1v-2.1H344v15.9h3.3v-8.8c0-0.2,0-0.4,0-0.6c0-0.3,0.1-0.5,0.1-0.8
						c0-0.2,0.1-0.5,0.2-0.8c0.1-0.2,0.1-0.5,0.2-0.6c0.2-0.3,0.4-0.6,0.5-0.8c0.2-0.2,0.4-0.5,0.7-0.7c0.3-0.2,0.6-0.3,1-0.4
						c0.4-0.1,0.9-0.2,1.4-0.2c1.6,0,2.6,0.4,3.1,1.1c0.5,0.7,0.7,1.8,0.7,3.4v9.1h3.3v-9.4C358.7,989.5,358.6,988.5,358.4,987.7z"
						/>
					<path class="st0" d="M389,986.2c-1.5-1.6-3.5-2.5-5.9-2.5c-2.5,0-4.5,1-6,3.1H377v-16.2h-3.3v29.4h3.3v-2.5h0.1
						c0.7,1,1.5,1.7,2.6,2.2c1,0.5,2.1,0.8,3.3,0.8c2.6,0,4.6-0.8,6.1-2.5c1.5-1.7,2.2-3.7,2.2-6.1
						C391.3,989.7,390.5,987.8,389,986.2z M386.4,996.2c-1,1.1-2.4,1.7-4.1,1.7c-1.7,0-3-0.6-4-1.7c-1-1.1-1.5-2.5-1.5-4.1
						c0-1.6,0.5-2.9,1.5-4c1-1.1,2.3-1.7,4-1.7c1.8,0,3.1,0.6,4.1,1.7c1,1.1,1.5,2.4,1.5,4C388,993.7,387.5,995.1,386.4,996.2z"/>
					<path class="st0" d="M406.9,984.2l-5.4,10.1l-5.8-10.1h-3.9l7.9,13.2l-6.8,11.8h3.8l14-25H406.9z"/>
					<path class="st0" d="M433.8,973.4l-13.3,26.6h3.7l3.2-6.4h12.8l3.2,6.4h3.7L433.8,973.4z M428.9,990.7l5-10.3l5,10.3H428.9z"/>
					<path class="st0" d="M449.2,970.6v29.4h3.3v-29.4H449.2z"/>
					<path class="st0" d="M457.4,970.6v29.4h3.3v-29.4H457.4z"/>
					<path class="st0" d="M465.3,987.9v2.5h8.1v-2.5H465.3z"/>
					<path class="st0" d="M481.8,976.3c0-0.2,0.1-0.6,0.1-1.1c0.1-0.6,0.3-1.1,0.7-1.5c0.3-0.4,0.8-0.6,1.6-0.6
						c0.4,0,1.2,0.2,2.2,0.6v-3.1c-0.7-0.3-1.5-0.4-2.3-0.4c-3.7,0-5.6,2.1-5.6,6.2v7.7h-1.5v2.9h1.5v13h3.3v-13h4.6v-2.9h-4.6v-6.8
						C481.7,976.9,481.8,976.6,481.8,976.3z"/>
					<path class="st0" d="M496.3,983.7c-1.1,0-2.1,0.3-2.9,0.8c-0.8,0.5-1.4,1.3-1.8,2.2h-0.1v-2.6h-3.3v15.9h3.3v-7.8
						c0-0.7,0-1.4,0.1-2c0.1-0.6,0.3-1.2,0.5-1.7c0.6-1.3,1.7-1.9,3.4-1.9c0.8,0,1.5,0.2,2,0.7l1.5-2.8
						C498.1,984,497.2,983.7,496.3,983.7z"/>
					<path class="st0" d="M516.1,992.1c0-2.5-0.7-4.5-2.1-6.1c-1.4-1.6-3.4-2.4-6-2.4c-2.7,0-4.8,0.8-6.2,2.4
						c-1.5,1.6-2.2,3.7-2.2,6.2c0,2.4,0.8,4.4,2.3,6c1.6,1.6,3.6,2.4,6.2,2.4c1.7,0,3.3-0.4,4.7-1.2c1.4-0.8,2.5-1.8,3.3-3.2
						l-2.8-1.4c-0.7,1-1.4,1.8-2.2,2.3c-0.8,0.5-1.8,0.8-3,0.8c-1.5,0-2.8-0.5-3.7-1.6c-0.9-1-1.4-2.3-1.5-3.7h13.2V992.1z
						 M503.1,990.3c0.1-0.6,0.3-1.1,0.6-1.6c0.3-0.5,0.6-0.9,1.1-1.3c0.4-0.4,0.9-0.6,1.5-0.8c0.6-0.2,1.2-0.3,1.8-0.3
						c1.3,0,2.4,0.4,3.2,1.1c0.8,0.7,1.3,1.7,1.5,2.9H503.1z"/>
					<path class="st0" d="M534.1,992.1c0-2.5-0.7-4.5-2.1-6.1c-1.4-1.6-3.4-2.4-6-2.4c-2.7,0-4.8,0.8-6.2,2.4
						c-1.5,1.6-2.2,3.7-2.2,6.2c0,2.4,0.8,4.4,2.3,6c1.5,1.6,3.6,2.4,6.2,2.4c1.7,0,3.3-0.4,4.7-1.2c1.4-0.8,2.5-1.8,3.3-3.2
						l-2.8-1.4c-0.7,1-1.4,1.8-2.2,2.3c-0.8,0.5-1.8,0.8-3,0.8c-1.5,0-2.8-0.5-3.7-1.6c-0.9-1-1.4-2.3-1.5-3.7h13.2V992.1z
						 M521.1,990.3c0.1-0.6,0.3-1.1,0.6-1.6c0.3-0.5,0.6-0.9,1.1-1.3c0.4-0.4,0.9-0.6,1.5-0.8c0.6-0.2,1.1-0.3,1.8-0.3
						c1.3,0,2.4,0.4,3.2,1.1c0.8,0.7,1.3,1.7,1.5,2.9H521.1z"/>
					<path class="st0" d="M536.8,987.9v2.5h8.1v-2.5H536.8z"/>
					<path class="st0" d="M562.1,970.6v16.2H562c-1.5-2.1-3.5-3.1-6-3.1c-2.4,0-4.4,0.8-5.9,2.5c-1.5,1.6-2.2,3.6-2.2,5.8
						c0,2.4,0.7,4.4,2.2,6.1c1.5,1.7,3.5,2.5,6.1,2.5c1.2,0,2.3-0.3,3.3-0.8c1-0.5,1.9-1.3,2.6-2.2h0.1v2.5h3.3v-29.4H562.1z
						 M560.8,996.2c-1,1.1-2.3,1.7-4.1,1.7c-1.7,0-3-0.6-4-1.7c-1-1.1-1.5-2.5-1.5-4.1c0-1.6,0.5-2.9,1.5-4c1-1.1,2.3-1.7,4-1.7
						c1.8,0,3.1,0.6,4.1,1.7c1,1.1,1.5,2.4,1.5,4C562.3,993.7,561.8,995.1,560.8,996.2z"/>
					<path class="st0" d="M584,986.2c-1.8-1.6-4-2.4-6.5-2.4c-2.6,0-4.8,0.8-6.6,2.4c-1.8,1.6-2.7,3.6-2.7,6c0,2.4,0.9,4.4,2.7,6
						c1.8,1.6,4,2.5,6.6,2.5c2.6,0,4.8-0.8,6.5-2.5c1.8-1.6,2.7-3.6,2.7-6C586.7,989.8,585.8,987.8,584,986.2z M581.6,996
						c-1.2,1.1-2.5,1.6-4.2,1.6c-1.7,0-3-0.5-4.2-1.6c-1.2-1.1-1.7-2.4-1.7-3.9c0-1.5,0.6-2.8,1.7-3.9c1.1-1.1,2.5-1.6,4.2-1.6
						c1.6,0,3,0.5,4.2,1.6c1.2,1.1,1.7,2.4,1.7,3.9C583.4,993.6,582.8,994.9,581.6,996z"/>
					<path class="st0" d="M610.8,984.2l-5,10.1l-5.1-11l-5.1,11l-5-10.1h-3.8l8.8,16.4l5.1-10.6l5.1,10.6l8.8-16.4H610.8z"/>
					<path class="st0" d="M630.7,987.7c-0.2-0.8-0.5-1.6-1-2.1c-0.5-0.6-1.1-1-1.9-1.4c-0.8-0.3-1.8-0.5-2.9-0.5
						c-1.1,0-2.1,0.2-3.1,0.7c-0.9,0.5-1.6,1.1-2.1,1.9h-0.1v-2.1h-3.3v15.9h3.3v-8.8c0-0.2,0-0.4,0-0.6c0-0.3,0.1-0.5,0.1-0.8
						c0-0.2,0.1-0.5,0.2-0.8c0.1-0.2,0.1-0.5,0.2-0.6c0.2-0.3,0.4-0.6,0.6-0.8c0.2-0.2,0.4-0.5,0.7-0.7c0.3-0.2,0.6-0.3,1-0.4
						c0.4-0.1,0.9-0.2,1.5-0.2c1.5,0,2.6,0.4,3.1,1.1c0.5,0.7,0.7,1.8,0.7,3.4v9.1h3.3v-9.4C631,989.5,630.9,988.5,630.7,987.7z"/>
					<path class="st0" d="M635.7,970.6v29.4h3.3v-29.4H635.7z"/>
					<path class="st0" d="M658,986.2c-1.8-1.6-4-2.4-6.5-2.4c-2.6,0-4.8,0.8-6.6,2.4c-1.8,1.6-2.7,3.6-2.7,6c0,2.4,0.9,4.4,2.7,6
						c1.8,1.6,4,2.5,6.6,2.5c2.6,0,4.8-0.8,6.5-2.5c1.8-1.6,2.7-3.6,2.7-6C660.7,989.8,659.8,987.8,658,986.2z M655.7,996
						c-1.2,1.1-2.6,1.6-4.2,1.6c-1.7,0-3-0.5-4.2-1.6c-1.2-1.1-1.7-2.4-1.7-3.9c0-1.5,0.6-2.8,1.7-3.9c1.1-1.1,2.5-1.6,4.2-1.6
						c1.6,0,3,0.5,4.2,1.6c1.1,1.1,1.7,2.4,1.7,3.9C657.4,993.6,656.8,994.9,655.7,996z"/>
					<path class="st0" d="M676.6,984.2v2.6h-0.1c-1.5-2.1-3.5-3.1-6-3.1c-2.4,0-4.4,0.8-5.9,2.5c-1.5,1.6-2.2,3.6-2.2,5.8
						c0,2.4,0.7,4.4,2.2,6.1c1.5,1.7,3.5,2.5,6.1,2.5c2.4,0,4.4-1,5.9-3h0.1v2.5h3.3v-15.9H676.6z M675.3,996.2
						c-1,1.1-2.3,1.7-4.1,1.7c-1.7,0-3-0.6-4-1.7c-1-1.1-1.5-2.5-1.5-4.1c0-1.6,0.5-2.9,1.5-4c1-1.1,2.3-1.7,4-1.7
						c1.8,0,3.1,0.6,4.1,1.7c1,1.1,1.5,2.4,1.5,4C676.8,993.7,676.3,995.1,675.3,996.2z"/>
					<path class="st0" d="M697.2,970.6v16.2h-0.1c-1.5-2.1-3.5-3.1-6-3.1c-2.4,0-4.4,0.8-5.9,2.5c-1.5,1.6-2.3,3.6-2.3,5.8
						c0,2.4,0.7,4.4,2.2,6.1c1.5,1.7,3.5,2.5,6.1,2.5c1.2,0,2.3-0.3,3.3-0.8c1-0.5,1.9-1.3,2.6-2.2h0.1v2.5h3.3v-29.4H697.2z
						 M695.8,996.2c-1,1.1-2.3,1.7-4.1,1.7c-1.7,0-3-0.6-4-1.7c-1-1.1-1.5-2.5-1.5-4.1c0-1.6,0.5-2.9,1.5-4c1-1.1,2.3-1.7,4-1.7
						c1.8,0,3.1,0.6,4.1,1.7c1,1.1,1.5,2.4,1.5,4C697.4,993.7,696.9,995.1,695.8,996.2z"/>
					<path class="st0" d="M709.4,997.2c-0.4-0.4-0.9-0.6-1.5-0.6c-0.6,0-1.1,0.2-1.5,0.6c-0.4,0.4-0.6,0.8-0.6,1.4
						c0,0.6,0.2,1,0.6,1.4c0.4,0.4,0.9,0.6,1.5,0.6c0.6,0,1.1-0.2,1.5-0.6c0.4-0.4,0.6-0.8,0.6-1.4
						C710,998.1,709.8,997.6,709.4,997.2z"/>
					<path class="st0" d="M723.3,986.6c1.9,0,3.6,0.7,5,2.1v-3.9c-1.3-0.7-2.8-1.1-4.6-1.1c-2.7,0-5,0.8-6.8,2.4
						c-1.8,1.6-2.7,3.7-2.7,6.1c0,2.4,0.9,4.4,2.7,5.9c1.8,1.6,4,2.4,6.6,2.4c1.8,0,3.3-0.4,4.8-1.1v-3.9c-1.4,1.4-3,2.1-4.7,2.1
						c-1.7,0-3.2-0.5-4.3-1.6c-1.1-1-1.7-2.4-1.7-4c0-1.5,0.6-2.8,1.7-3.9C720.3,987.1,721.7,986.6,723.3,986.6z"/>
					<path class="st0" d="M746,986.2c-1.8-1.6-4-2.4-6.5-2.4c-2.6,0-4.8,0.8-6.6,2.4c-1.8,1.6-2.7,3.6-2.7,6c0,2.4,0.9,4.4,2.7,6
						c1.8,1.6,4,2.5,6.6,2.5c2.6,0,4.8-0.8,6.5-2.5c1.8-1.6,2.7-3.6,2.7-6C748.7,989.8,747.8,987.8,746,986.2z M743.7,996
						c-1.2,1.1-2.5,1.6-4.2,1.6c-1.7,0-3-0.5-4.2-1.6c-1.2-1.1-1.7-2.4-1.7-3.9c0-1.5,0.6-2.8,1.7-3.9c1.1-1.1,2.5-1.6,4.2-1.6
						c1.6,0,3,0.5,4.2,1.6c1.2,1.1,1.7,2.4,1.7,3.9C745.4,993.6,744.8,994.9,743.7,996z"/>
					<path class="st0" d="M770,983.7c-1.1,0-2.1,0.3-3.1,0.8c-1,0.5-1.7,1.2-2.2,2.1c-1.2-1.9-2.9-2.8-5-2.8c-0.9,0-1.8,0.2-2.6,0.7
						c-0.8,0.5-1.5,1.1-2,1.8H755v-2h-3.3v15.9h3.3v-7.8c0-0.8,0-1.4,0.1-2c0.1-0.6,0.2-1.2,0.4-1.8c0.5-1.3,1.6-2,3.3-2
						c0.6,0,1.1,0.1,1.5,0.4c0.4,0.2,0.7,0.5,0.9,0.8c0.2,0.3,0.4,0.7,0.5,1.3c0.1,0.5,0.2,1,0.2,1.4c0,0.4,0,0.8,0,1.4v8.4h3.3
						v-7.8c0-0.6,0-1.1,0-1.6c0-0.4,0.1-0.9,0.3-1.5c0.2-0.6,0.4-1,0.6-1.4c0.3-0.4,0.6-0.7,1.1-0.9c0.5-0.3,1.1-0.4,1.8-0.4
						c0.7,0,1.3,0.1,1.7,0.4c0.3,0.2,0.6,0.5,0.8,0.8c0.2,0.3,0.3,0.7,0.4,1c0.1,0.4,0.2,0.8,0.2,1.2c0,0.4,0,0.8,0,1.2v9h3.3v-9.5
						C775.7,986,773.8,983.7,770,983.7z"/>
				</g>
				<g>
					<rect x="179.8" y="988.6" class="st0" width="47.1" height="2.1"/>
					<rect x="806.1" y="988.6" class="st0" width="47.1" height="2.1"/>
				</g>
			</g>
		</g>
	</g>
</g>
<g>
	<polygon class="st2" points="571.3,612.9 552.3,620.6 570.8,630.4 638.2,628.4 	"/>
	<path class="st3" d="M746.2,442.4l-40.3,164.9l-59.4-57.7l-17-16.5c0,0,26.9-12.2,85.3-97.1c2.4-3.5,4.8-7.1,7.3-10.8
		C743.7,442.4,746.2,442.4,746.2,442.4z"/>
	
		<rect x="333.7" y="569.9" transform="matrix(1 -9.979512e-03 9.979512e-03 1 -5.7328 3.3755)" class="st4" width="3.3" height="12.4"/>
	<path class="st5" d="M714.9,436.1c-10.9,50.1-66.8,111.9-68.3,113.6l-17-16.5C629.6,533.2,656.5,521,714.9,436.1z"/>
	
		<rect x="325.7" y="570.8" transform="matrix(1 -9.979512e-03 9.979512e-03 1 -5.743 3.2966)" class="st4" width="3.5" height="12.5"/>
	<path class="st6" d="M745,633.9c0,0-1.8,8.4-8.7,13.4c0,0-34.9-3.8-80.4-12.2c-11-2-22.7-4.4-34.6-7c-20.2-4.4-41.3-9.7-61.4-15.8
		c-43.1-13.9-84.3-46.9-84.3-46.9s-26.5,2.3-80.7-26.1c-26.4-12.7-59-36.5-73.1-48.7c-14.1-12.1-32.4-41.6-32.4-41.6
		s-90.4-61.4-119.8-86.2c-0.2-0.2-0.5-0.4-0.7-0.6C154.6,350,145.3,335,141,321.3c-2-6.4-2.9-12.4-2.6-17.8
		c0.3-6.4,2.1-11.7,5.5-15.5c12.6-13.9,49.2-24.2,61.9-25.3c12.8-1.1,46.7,5.8,77.9,24.1c31.2,18.3,202.3,135.8,202.3,135.8
		s183.7,123.9,216.7,158.8c16.8,16.2,28.6,31.7,35.3,41.6C742.7,629.7,745,633.9,745,633.9z"/>
	<path class="st7" d="M354.9,499.9c0,0-37.6,3.3-78.6,7c-2.5,0.2-5,0.5-7.6,0.7c-1.4,0.1-2.7,0.2-4.1,0.4c-4,0.4-8,0.7-12,1.1
		c-35.6,3.2-68.7,6.4-77,7.6c-1.9,0.3-3.7,0.5-5.3,0.8c-15.3,2.5-19.2,5.2-19.2,5.2l-67,3.8l-1.9,14.7c0,0-0.8-0.2-2.3-0.2
		c-0.3-6.4-5-14-8.6-19c-2.3-3.2-4.2-5.3-4.2-5.3l-7.2,0.4c0,0,0,0,0-1.7c47.6-9.6,112.7-26.5,162.8-40c0.4-0.1,0.9-0.2,1.3-0.3
		c5-1.4,9.9-2.7,14.6-3.9c34.7-9.4,58.9-16.4,58.9-16.4l13.9,11L354.9,499.9z"/>
	<path class="st8" d="M745,633.9c0,0-1.8,8.4-8.7,13.4c0,0-1.7-0.2-4.8-0.6c-11.1-1.3-40.1-5.1-75.6-11.6c-11-2-22.7-4.4-34.6-7
		c-13.4-14-26.4-27.1-28.2-28.7c-4.1-3.4-109-69.8-109-69.8l58.7-13.8c0,0,119.5,85,139.9,97.2c19.6,11.8,36.1,17.6,55.5,9.9
		c2,3,3.6,5.4,4.7,7.3C744.3,632.6,745,633.9,745,633.9z"/>
	<path class="st8" d="M440.7,454l-6.5,7.8c0,0-48.7,4.8-53.1,3.1c-3.4-1.3-146.2-70.6-212.2-102.6C154.6,350,145.3,335,141,321.3
		c-2-6.4-2.9-12.4-2.6-17.8c2.9-3.6,9-8.4,21-6.8C178,299.2,252,321.5,373.3,410C415.5,435.9,440.7,454,440.7,454z"/>
	<path class="st9" d="M276.3,506.9c-2.5,0.2-5,0.5-7.6,0.7c-1.4,0.1-2.7,0.2-4.1,0.4c-16.4-6.3-33.4-23.3-41.8-32.5
		c0.4-0.1,0.9-0.2,1.3-0.3c5-1.4,9.9-2.7,14.6-3.9C246.9,478.2,264.2,493.6,276.3,506.9z"/>
	<path class="st10" d="M78.1,533.5c1.2,2.4,2.3,5,2.8,7.5c-0.3,0-0.6,0-0.9,0C79.9,538.6,79.2,536,78.1,533.5z"/>
	<path class="st11" d="M492.7,487.7l-16.8,9.9c0,0-40.8-6.2-49.8-41.4c0,0,4.6-5.9,13.2-10.2c4-2,8.9-3.7,14.6-4.3
		c3-0.3,6.3-0.3,9.7,0.1c1,0.1,2.1,0.3,3.2,0.5c13,8.9,19.5,19,22.8,27.4C493.6,480,492.7,487.7,492.7,487.7z"/>
	<path class="st12" d="M354.9,499.9c0,0-0.7,0.1-2.1,0.2L313,468.7l-13.9-11c0,0-31.2,8.9-73.4,20.3c-48.1,13-110.6,29.1-157.9,39
		c-0.2-0.3-0.3-0.4-0.3-0.4l-7.2,0.4c0,0,0,0,0-1.7c48-9.7,113.9-26.8,164.1-40.3c42.3-11.4,73.4-20.3,73.4-20.3l13.9,11
		L354.9,499.9z"/>
	<path class="st13" d="M461.4,444l-10.2,0.7l-21.6-3.3l-44.8-27.6c-0.1-0.2-0.3-0.3-0.4-0.5c1.8-1.3,3.7-2.5,5.8-3.5
		c6.9-3.1,13-0.7,19.4,2.4c3.5,1.8,7,3.6,10.4,5.6c7.7,4.3,15.1,9,22.6,13.7C448.9,435.7,455.2,439.8,461.4,444z"/>
	<path class="st8" d="M695.6,594.9c0,0-2.9,16.1,6.9,24.3s31.5-2.6,31.5-2.6L695.6,594.9z"/>
	<path class="st14" d="M407.6,545.3c-21-6.7-48.3-10.3-77.2-11.9c-5.6-0.3-11.2-0.6-16.8-0.8c-75.3-2.5-154.5,6.1-154.5,6.1
		l-5.6-15.4c58.7-10.3,107.9-13.5,143.4-14c12.1-0.2,22.7,0,31.5,0.3c20.4,0.7,31.5,2.1,31.5,2.1S399.2,526.3,407.6,545.3z"/>
	<path class="st15" d="M368.6,427.8c3-3.3,6.3-6.5,9.7-9.4c2-1.7,4-3.4,6.1-5c1.8-1.3,3.7-2.5,5.8-3.5c6.9-3.1,13-0.7,19.4,2.4
		c3.5,1.8,7,3.6,10.4,5.6c7.7,4.3,15.1,9,22.6,13.7c6.4,4,12.7,8.1,18.9,12.3c0.7,0.5,1.4,0.9,2.1,1.4"/>
	<polygon class="st16" points="346.4,507.7 333.8,546 333.9,552.3 349.6,508.7 	"/>
	<path class="st17" d="M315.9,481.6l21.6,21c0,0,0.2,48-2.6,65.7c-2.3,0-3.7,0-3.7,0s-0.1-31.3-3.5-44
		C324.3,511.5,315.9,481.6,315.9,481.6z"/>
	<path class="st18" d="M655.9,635.1c-12.6-2.3-25.9-5-39.6-8.1c-18.7-4.2-38-9.1-56.5-14.7c-43.1-13.9-84.3-46.9-84.3-46.9
		s-26.5,2.3-80.7-26.1c-26.4-12.7-59-36.5-73.1-48.7c-0.9-0.8-1.8-1.6-2.7-2.5c-0.3-0.3-0.6-0.6-0.9-0.9c-1.4-1.4-2.9-3-4.3-4.6
		c-0.3-0.4-0.7-0.8-1-1.1c-0.6-0.6-1.1-1.3-1.7-2c-0.3-0.4-0.6-0.7-0.9-1.1c-3.5-4.3-7-8.9-10-13.1c-0.2-0.3-0.4-0.6-0.6-0.8
		c-0.8-1.1-1.5-2.2-2.2-3.2c-0.3-0.4-0.5-0.7-0.8-1.1c-1.9-2.7-3.4-5.1-4.7-7c-1.7-2.6-2.7-4.1-2.7-4.1s-90.4-61.4-119.8-86.2
		c-14.7-12.4-24.3-27.7-28.7-41.6c0.3-1,0.7-2,1.3-2.9c0.1-0.2,0.3-0.4,0.5-0.7c0.1-0.1,0.1-0.2,0.2-0.3c0.2-0.2,0.4-0.4,0.6-0.6
		c0.1-0.1,0.1-0.1,0.2-0.2c0.1-0.1,0.1-0.1,0.2-0.2c0.1-0.1,0.2-0.2,0.3-0.3c0.1-0.1,0.2-0.2,0.4-0.2c0.3-0.2,0.7-0.4,1.1-0.6
		c0,0,0.1,0,0.1-0.1c0.1-0.1,0.3-0.1,0.4-0.2c0.3-0.1,0.6-0.2,1-0.3c0.2,0,0.3-0.1,0.5-0.1c0.2,0,0.4,0,0.6-0.1c0.3,0,0.5,0,0.8-0.1
		c9.9-0.3,70.6,11.2,166.4,78.7c45.8,28.2,53,34.2,53,34.2s47.6,22,57.5,28.4c4.6,14.3,15,32.9,49.8,41.4
		c25.4,14.1,126.7,83.2,164.3,115.6C649.1,620.9,653.6,629.4,655.9,635.1z"/>
	<path class="st19" d="M332.6,559.8c0,0-2.5,0.7-7,0.1c-2.4-9.4-7-18.8-12.1-27.3c-5.5-9.1-11.6-17.2-16.7-23.3
		c12.1-0.2,22.7,0,31.5,0.3l2,23.8L332.6,559.8z"/>
	<path class="st20" d="M616.3,627c-18.7-4.2-38-9.1-56.5-14.7c-43.1-13.9-84.3-46.9-84.3-46.9s-26.5,2.3-80.7-26.1
		c-26.4-12.7-59-36.5-73.1-48.7c-0.9-0.8-1.8-1.6-2.7-2.5c-0.3-0.3-0.6-0.6-0.9-0.9c-1.4-1.4-2.9-3-4.3-4.6c-0.3-0.4-0.7-0.8-1-1.1
		c-0.6-0.6-1.1-1.3-1.7-2c-0.3-0.4-0.6-0.7-0.9-1.1c-3.5-4.3-7-8.9-10-13.1c-0.2-0.3-0.4-0.6-0.6-0.8c-0.8-1.1-1.5-2.2-2.2-3.2
		c-0.3-0.4-0.5-0.7-0.8-1.1c-1.9-2.7-3.4-5.1-4.7-7c-1.7-2.6-2.7-4.1-2.7-4.1s-90.4-61.4-119.8-86.2c-14.7-12.4-24.3-27.7-28.7-41.6
		c0.3-1,0.7-2,1.3-2.9c0.1-0.2,0.3-0.4,0.5-0.7c0.1-0.1,0.1-0.2,0.2-0.3c0.2-0.2,0.4-0.4,0.6-0.6c0.1-0.1,0.1-0.1,0.2-0.2
		c0.1-0.1,0.1-0.1,0.2-0.2c0.1-0.1,0.2-0.2,0.3-0.3c0.1-0.1,0.2-0.2,0.4-0.2c0.3-0.2,0.7-0.4,1.1-0.6c0,0,0.1,0,0.1-0.1
		c0.1-0.1,0.3-0.1,0.4-0.2c0.3-0.1,0.6-0.2,1-0.3c0.2,0,0.3-0.1,0.5-0.1c0.2,0,0.4,0,0.6-0.1l251.9,159c3.9-4.7,6.3-8.6,6.3-8.6
		s34.7,47,63.4,58.3C492.7,532.4,571.5,599.3,616.3,627z"/>
	
		<rect x="325.6" y="567" transform="matrix(1 -9.979512e-03 9.979512e-03 1 -5.6635 3.3346)" class="st21" width="11.4" height="4.4"/>
	<g>
		
			<ellipse transform="matrix(1.556365e-03 -1 1 1.556365e-03 -248.0498 932.4144)" class="st22" cx="342.9" cy="590.4" rx="18.1" ry="12.7"/>
		<path d="M330.3,589.5c-0.4,10,5,18.5,12,19c4.1,0.3,7.9-2.2,10.4-6.4c-2.5,3.7-6,5.9-9.8,5.6c-7-0.5-12.3-9-12-19
			c0.1-4,1.2-7.5,2.8-10.4C331.7,581.2,330.4,585.1,330.3,589.5z"/>
		
			<ellipse transform="matrix(1.556365e-03 -1 1 1.556365e-03 -243.5049 937.5087)" class="st23" cx="347.7" cy="590.7" rx="9.7" ry="6.8"/>
		<path class="st24" d="M346.1,600.2c0.4,0.2,0.8,0.2,1.2,0.3c3.8,0.3,7-3.9,7.2-9.2c0.2-5.4-2.7-10-6.5-10.2c0,0-0.1,0-0.1,0
			c3.1,1,5.4,5.2,5.2,10C353.1,596.3,349.9,600.4,346.1,600.2z"/>
		<path d="M340.3,590c-0.2,5.4,2.7,10,6.5,10.3c0.2,0,0.4,0,0.6,0c-3.1-1.2-5.2-5.2-5.1-9.9c0.2-5.1,3.1-9,6.6-9.2
			c-0.4-0.2-0.9-0.3-1.4-0.3C343.7,580.5,340.5,584.6,340.3,590z"/>
		<path class="st25" d="M340.9,590.2c-0.2,5.4,2.7,10,6.5,10.3c0.2,0,0.4,0,0.6,0c-3.1-1.2-5.2-5.2-5.1-9.9c0.2-5.1,3.1-9,6.6-9.2
			c-0.4-0.2-0.9-0.3-1.4-0.3C344.3,580.7,341.1,584.8,340.9,590.2z"/>
		
			<ellipse transform="matrix(1.556365e-03 -1 1 1.556365e-03 -242.6101 938.9086)" class="st26" cx="348.9" cy="590.9" rx="4.4" ry="3.1"/>
		
			<ellipse transform="matrix(1.556365e-03 -1 1 1.556365e-03 -243.1519 938.1479)" class="st27" cx="348.2" cy="590.8" rx="4.4" ry="3.1"/>
		<g class="st28">
			<path class="st0" d="M339.5,578.8c-0.6,1.1-1.1,2.2-1.5,3.3c-0.4,1.1-0.8,2.3-1,3.4c-0.5,2.3-0.8,4.7-0.6,7.1
				c0,1.2,0.3,2.4,0.5,3.5c0.3,1.1,0.7,2.3,1.2,3.4c0.9,2.2,2.3,4.2,3.8,6.1c-0.4-0.4-0.8-0.9-1.2-1.3c-0.4-0.5-0.9-0.9-1.2-1.4
				c-0.7-1-1.4-2-1.9-3.1c-0.6-1.1-0.9-2.3-1.3-3.4c-0.3-1.2-0.6-2.4-0.6-3.6c-0.1-2.5,0.1-4.9,0.8-7.3
				C337.1,583.1,338.1,580.8,339.5,578.8z"/>
		</g>
	</g>
	<g>
		
			<ellipse transform="matrix(6.317589e-02 -0.998 0.998 6.317589e-02 -290.7753 871.675)" class="st22" cx="318.9" cy="590.7" rx="17.7" ry="11.3"/>
		<path d="M307.7,589.4c-0.8,9.7,3.6,18.2,9.8,18.9c3.7,0.4,7.2-2,9.6-6c-2.4,3.5-5.6,5.6-9.1,5.2c-6.2-0.7-10.6-9.2-9.8-18.9
			c0.3-3.9,1.4-7.3,3-10.1C309.3,581.4,308,585.2,307.7,589.4z"/>
		
			<ellipse transform="matrix(6.317589e-02 -0.998 0.998 6.317589e-02 -286.4628 877.6057)" class="st26" cx="324.2" cy="591.4" rx="4.3" ry="2.8"/>
		
			<ellipse transform="matrix(6.317589e-02 -0.998 0.998 6.317589e-02 -288.244 874.4451)" class="st29" cx="321.7" cy="590.8" rx="8.3" ry="5.3"/>
		
			<ellipse transform="matrix(6.317589e-02 -0.998 0.998 6.317589e-02 -286.8806 876.9133)" class="st30" cx="323.6" cy="591.3" rx="4.3" ry="2.8"/>
		<g class="st28">
			<path class="st0" d="M316.4,579.3c-0.5,1-1.1,2.1-1.5,3.2c-0.4,1.1-0.8,2.2-1.1,3.3c-0.6,2.2-0.9,4.5-0.9,6.8
				c0,1.2,0.1,2.3,0.3,3.4c0.3,1.1,0.5,2.3,0.9,3.3c0.7,2.2,1.9,4.2,3.1,6.2c-0.4-0.5-0.7-0.9-1.1-1.4c-0.3-0.5-0.7-0.9-1-1.4
				l-0.9-1.5c-0.3-0.5-0.5-1.1-0.7-1.6c-0.5-1.1-0.7-2.3-1-3.4c-0.1-1.2-0.4-2.3-0.3-3.5c0-2.4,0.3-4.7,1.1-7
				C314,583.4,315,581.2,316.4,579.3z"/>
		</g>
	</g>
	<g>
		
			<rect x="206.8" y="420.9" transform="matrix(0.9779 0.2093 -0.2093 0.9779 93.5566 -34.0933)" class="st4" width="2.2" height="8.3"/>
		
			<rect x="201.4" y="420.4" transform="matrix(0.9779 0.2093 -0.2093 0.9779 93.3296 -32.992)" class="st4" width="2.3" height="8.4"/>
		<polygon class="st16" points="227,383.2 213.5,404.5 210.4,409.3 211.3,405.2 214.9,399.2 224.7,382.7 		"/>
		<path class="st17" d="M219.1,381.6c-1,4.2-2.5,10.8-4.3,17.7c-0.5,1.8-0.9,3.5-1.4,5.3c-1.5,5.6-3.1,10.9-4.4,14.5
			c-0.1,0.3-0.2,0.6-0.3,0.9c-1.5-0.3-2.5-0.5-2.5-0.5s0.1-0.3,0.2-0.9c0.2-0.9,0.5-2.5,0.9-4.5c1.3-6.7,3.3-18,3.1-23.9
			c-0.1-2.6-0.3-6.4-0.4-10.3c0-0.1,0-0.1,0-0.2L219.1,381.6z"/>
		<path class="st19" d="M213.1,380.5l-2.2,15.8l-2.4,17.7c0,0-0.4,0-1.1-0.1c-0.8-0.1-2-0.3-3.5-0.9l1.5-34.4
			c1.6,0.4,3.1,0.8,4.6,1.1C211.1,380,212.1,380.3,213.1,380.5z"/>
		
			<rect x="202.5" y="418.5" transform="matrix(0.9779 0.2093 -0.2093 0.9779 92.4422 -33.8649)" class="st21" width="7.6" height="3"/>
		<g>
			
				<ellipse transform="matrix(0.2205 -0.9754 0.9754 0.2205 -260.5699 545.0571)" class="st22" cx="210.7" cy="435.6" rx="12.1" ry="8.5"/>
			<path d="M202.6,433.1c-1.7,6.5,0.5,12.8,5,14.2c2.7,0.8,5.5-0.3,7.7-2.7c-2.2,2-4.8,2.9-7.3,2.2c-4.5-1.4-6.7-7.7-5-14.2
				c0.7-2.6,1.9-4.8,3.4-6.4C204.7,427.8,203.3,430.2,202.6,433.1z"/>
			
				<ellipse transform="matrix(0.2205 -0.9754 0.9754 0.2205 -259.0051 548.7864)" class="st23" cx="213.9" cy="436.4" rx="6.5" ry="4.6"/>
			<path class="st24" d="M211.4,442.4c0.2,0.2,0.5,0.3,0.8,0.4c2.4,0.7,5.1-1.5,6.1-5c0.9-3.5-0.3-6.9-2.7-7.6c0,0,0,0,0,0
				c1.9,1.1,2.8,4.2,1.9,7.3C216.5,440.9,213.8,443.1,211.4,442.4z"/>
			<path d="M209.1,434.9c-0.9,3.5,0.3,6.9,2.7,7.7c0.1,0,0.3,0.1,0.4,0.1c-1.8-1.2-2.7-4.2-1.8-7.2c0.9-3.3,3.3-5.5,5.6-5.1
				c-0.3-0.2-0.6-0.3-0.9-0.4C212.7,429.2,210,431.4,209.1,434.9z"/>
			<path class="st25" d="M209.5,435.1c-0.9,3.5,0.3,6.9,2.7,7.7c0.1,0,0.3,0.1,0.4,0.1c-1.8-1.2-2.7-4.2-1.8-7.2
				c0.9-3.3,3.3-5.5,5.6-5.1c-0.3-0.2-0.6-0.3-0.9-0.4C213.1,429.4,210.4,431.6,209.5,435.1z"/>
			
				<ellipse transform="matrix(0.2205 -0.9754 0.9754 0.2205 -258.7735 549.7429)" class="st26" cx="214.6" cy="436.8" rx="3" ry="2.1"/>
			
				<ellipse transform="matrix(0.2205 -0.9754 0.9754 0.2205 -258.9305 549.2124)" class="st27" cx="214.2" cy="436.6" rx="3" ry="2.1"/>
			<g class="st28">
				<path class="st0" d="M210.2,427.5c-1.1,1.2-1.9,2.6-2.6,4c-0.7,1.4-1.2,3-1.4,4.5c-0.2,0.8-0.2,1.6-0.2,2.4
					c0.1,0.8,0.1,1.6,0.3,2.4c0.3,1.6,0.9,3.1,1.6,4.6c-0.4-0.7-0.8-1.4-1.2-2.1c-0.3-0.8-0.6-1.5-0.8-2.3c-0.4-1.6-0.4-3.3-0.2-4.9
					c0.3-1.6,0.8-3.2,1.6-4.7C208,429.9,209,428.6,210.2,427.5z"/>
			</g>
		</g>
		<g>
			
				<ellipse transform="matrix(0.2802 -0.9599 0.9599 0.2802 -274.5546 498.2979)" class="st22" cx="195" cy="432.2" rx="11.9" ry="7.6"/>
			<path d="M187.8,429.7c-2,6.3-0.3,12.4,3.6,13.8c2.3,0.8,5-0.2,7.1-2.5c-2.1,2-4.5,2.8-6.7,2.1c-4-1.4-5.6-7.6-3.6-13.8
				c0.8-2.5,2-4.6,3.4-6.2C190.1,424.7,188.7,427,187.8,429.7z"/>
			
				<ellipse transform="matrix(0.2802 -0.9599 0.9599 0.2802 -273.2913 502.4178)" class="st26" cx="198.4" cy="433.4" rx="2.9" ry="1.9"/>
			
				<ellipse transform="matrix(0.2802 -0.9599 0.9599 0.2802 -273.6772 500.321)" class="st29" cx="196.8" cy="432.7" rx="5.6" ry="3.6"/>
			
				<ellipse transform="matrix(0.2802 -0.9599 0.9599 0.2802 -273.3912 501.9532)" class="st30" cx="198" cy="433.3" rx="2.9" ry="1.9"/>
			<g class="st28">
				<path class="st0" d="M195,424.4c-1,1.2-1.9,2.5-2.6,3.9c-0.7,1.4-1.3,2.8-1.6,4.3c-0.2,0.7-0.2,1.5-0.3,2.3c0,0.8,0,1.5,0.1,2.3
					c0.1,1.5,0.6,3,1.1,4.5c-0.7-1.4-1.3-2.9-1.5-4.5c-0.2-0.8-0.1-1.6-0.2-2.4c0.1-0.8,0.1-1.6,0.3-2.4c0.4-1.5,0.9-3.1,1.7-4.4
					C192.9,426.7,193.9,425.4,195,424.4z"/>
			</g>
		</g>
	</g>
	<path class="st31" d="M258.4,551.9c0,0-1.6-0.5-4.2-1.4c-5.7-1.8-16.3-5.1-26.8-7.5c-23.7-6.7-40.2-16.8-51.1-26c0,0,0,0-0.1-0.1
		c-14.8-13.5-15.9-22.7-16-24.5c4.6-8.2,16.2-27.1,30.3-35.4c2-1.2,4.1-2.2,6.3-2.8c2.4,0.5,19.7,4.4,35.9,18.2c0-0.1,0-0.1,0-0.2
		c14.1,12.2,28.2,28.3,39.7,42.4c1.2,1.5,2.5,3,3.6,4.5c0.1,0.2,0.1,0.4,0.2,0.6C283.6,549.6,258.4,551.9,258.4,551.9z"/>
	<path class="st32" d="M888.9,608.3l-158.6,15.2c0,0-7.5-7.3-24.7-12.3c-7.2-10.1-10-16.3-10-16.3l176.2,2l5.6,3.7L888.9,608.3z"/>
	<path class="st33" d="M540.8,476.3c0,0-2.5,7.5-6.7,11.1"/>
	<path class="st11" d="M963.6,455.5l-1.7-1.7l-1.6-8.1l-101.8,14.4l-7.3-3.3c0,0-200.4,16.2-223.2,17.8c-22.8,1.6-27,4.2-28.4,9.5
		c4.1-1.6,8.4-2.9,13.9-4c0.9-0.2,1.9-0.4,2.9-0.5c6.5-1.1,14.8-2,26.1-2.7c5.4-0.4,19.6-1.5,38.2-2.9c2.5-0.2,5-0.4,7.6-0.6
		c34.1-2.7,79.7-6.4,114-9.1c3-0.2,6-0.5,8.8-0.7c23.8-1.9,40.4-3.3,40.4-3.3l8.8,15.4c0,0-16.7,1.7-40.7,4.2c-2,0.2-4,0.4-6,0.6
		c-33.7,3.6-79.3,8.5-113.8,12.9c-0.3,0-0.6,0.1-0.9,0.1c-17.9,2.3-32.8,4.4-41.3,6.1c-8.6,1.7-16.3,3.3-23.2,4.8l-0.9,0.2
		c-0.8,0.2-1.5,0.3-2.3,0.5c-21.6,4.8-33.3,8.2-33.3,8.2l-10.3,2.5l-98-46.1L439.3,446c4-2,8.9-3.7,14.6-4.3c3,0,6.2,0,9.7,0.1
		c24.7,0.2,61.1,0.3,103.6,0.2c115.1-0.3,274.5-2.4,364-11.1c0.3,0,0.5,0,0.8,0c17.5,0.4,31.1,3.2,31.6,12.3
		C964.2,452.5,963.6,455.5,963.6,455.5z"/>
	<polygon class="st34" points="587.3,499.4 599.7,516.6 599.1,531.9 581,517.2 	"/>
	<polygon class="st35" points="599.7,516.6 599.5,522.6 583.6,509.7 587.3,499.4 	"/>
	<g>
		<rect x="537" y="552.5" class="st4" width="3" height="19.2"/>
		<rect x="530.4" y="553.5" class="st4" width="3.2" height="19.2"/>
		<rect x="532.2" y="553.5" class="st36" width="1.4" height="19.2"/>
		<g>
			
				<ellipse transform="matrix(1.556365e-03 -1 1 1.556365e-03 -24.6227 1118.4871)" class="st22" cx="547.8" cy="571.6" rx="18.1" ry="12.7"/>
			<path d="M535.2,570.6c-0.4,10,5,18.5,12,19c4.1,0.3,7.9-2.2,10.4-6.4c-2.5,3.7-6,5.9-9.8,5.6c-7-0.5-12.3-9-12-19
				c0.1-4,1.2-7.5,2.8-10.4C536.6,562.3,535.3,566.2,535.2,570.6z"/>
			
				<ellipse transform="matrix(1.556365e-03 -1 1 1.556365e-03 -20.0777 1123.5814)" class="st23" cx="552.6" cy="571.8" rx="9.7" ry="6.8"/>
			<path class="st24" d="M551,581.3c0.4,0.2,0.8,0.2,1.2,0.3c3.8,0.3,7-3.9,7.2-9.2c0.2-5.4-2.7-10-6.5-10.2c0,0-0.1,0-0.1,0
				c3.1,1,5.4,5.2,5.2,10C558,577.4,554.8,581.6,551,581.3z"/>
			<path d="M545.2,571.2c-0.2,5.4,2.7,10,6.5,10.3c0.2,0,0.4,0,0.6,0c-3.1-1.2-5.2-5.2-5.1-9.9c0.2-5.1,3.1-9,6.6-9.2
				c-0.4-0.2-0.9-0.3-1.4-0.3C548.6,561.7,545.4,565.8,545.2,571.2z"/>
			<path class="st25" d="M545.8,571.3c-0.2,5.4,2.7,10,6.5,10.3c0.2,0,0.4,0,0.6,0c-3.1-1.2-5.2-5.2-5.1-9.9c0.2-5.1,3.1-9,6.6-9.2
				c-0.4-0.2-0.9-0.3-1.4-0.3C549.2,561.8,546,566,545.8,571.3z"/>
			
				<ellipse transform="matrix(1.556365e-03 -1 1 1.556365e-03 -19.1829 1124.9813)" class="st26" cx="553.8" cy="572.1" rx="4.4" ry="3.1"/>
			
				<ellipse transform="matrix(1.556365e-03 -1 1 1.556365e-03 -19.7247 1124.2207)" class="st27" cx="553.1" cy="572" rx="4.4" ry="3.1"/>
			<g class="st28">
				<path class="st0" d="M544.4,560c-0.6,1.1-1.1,2.2-1.5,3.3c-0.4,1.1-0.8,2.3-1,3.4c-0.5,2.3-0.8,4.7-0.6,7.1
					c0,1.2,0.3,2.4,0.5,3.5c0.3,1.1,0.7,2.3,1.2,3.4c0.9,2.2,2.3,4.2,3.8,6.1c-0.4-0.4-0.8-0.9-1.2-1.3c-0.4-0.5-0.9-0.9-1.2-1.4
					c-0.7-1-1.4-2-1.9-3.1c-0.6-1.1-0.9-2.3-1.3-3.4c-0.3-1.2-0.6-2.4-0.6-3.6c-0.1-2.5,0.1-4.9,0.8-7.3
					C542,564.2,543,562,544.4,560z"/>
			</g>
		</g>
		<g>
			
				<ellipse transform="matrix(5.771457e-02 -0.9983 0.9983 5.771457e-02 -81.1003 1061.4154)" class="st22" cx="521.7" cy="573.7" rx="17.7" ry="11.8"/>
			<path d="M510,572.6c-0.7,9.8,4,18.1,10.5,18.8c3.8,0.4,7.5-2.1,9.9-6.2c-2.4,3.6-5.8,5.6-9.4,5.3c-6.5-0.6-11.2-9-10.5-18.8
				c0.3-3.9,1.4-7.4,3-10.2C511.6,564.5,510.3,568.3,510,572.6z"/>
			
				<ellipse transform="matrix(5.771457e-02 -0.9983 0.9983 5.771457e-02 -76.4543 1067.5178)" class="st26" cx="527.3" cy="574.3" rx="4.3" ry="2.9"/>
			
				<ellipse transform="matrix(5.771457e-02 -0.9983 0.9983 5.771457e-02 -78.4007 1064.2684)" class="st29" cx="524.6" cy="573.7" rx="8.3" ry="5.6"/>
			
				<ellipse transform="matrix(5.771457e-02 -0.9983 0.9983 5.771457e-02 -76.9089 1066.8059)" class="st30" cx="526.7" cy="574.1" rx="4.3" ry="2.9"/>
		</g>
		<polygon class="st37" points="490.8,491 511.4,537.4 561.6,520.4 		"/>
		
			<rect x="530.3" y="548" transform="matrix(1 -9.979512e-03 9.979512e-03 1 -5.4762 5.368)" class="st4" width="9.6" height="6.9"/>
		<path class="st38" d="M541.6,542.9c-1.8,2.9-1.6,5.8-1.6,5.8s-1.7,0.7-4.1,0.5c-1.1-0.1-2.4-0.4-3.7-1.1c0.8-5.3-2-16.2-2-16.2
			l-20.9-26.9l20.8,6.7l12.7,4.1C542.7,515.8,543.4,540,541.6,542.9z"/>
		<path class="st39" d="M541.6,542.9c-1.8,2.9-1.6,5.8-1.6,5.8s-1.7,0.7-4.1,0.5c0-2.1,0.2-4.5,0.8-6.4c1.5-4.8-1.2-14.5-3.4-18
			c-1.6-2.6-2.8-9.5-3.3-13l12.7,4.1C542.7,515.8,543.4,540,541.6,542.9z"/>
	</g>
	<path class="st40" d="M553.1,519.8l16.7,5.5c0,0,21.3-2.6,17.6-29.3c-7.9-5.4-11.8-8.7-11.8-8.7L553.1,519.8z"/>
	<path class="st41" d="M570.6,512.5L570.6,512.5c-7.4,7.7-17.4,8.3-17.4,8.3c-26.5-5.3-47-16.6-61-26.8c-7.8-5.7-13.6-11-17.4-14.9
		l0,0c-3-3.8-4.5-6.4-4.9-7.3c0,0,0,0,0,0c0-0.1,0-0.2,0.1-0.3c0-0.2,0.1-0.5,0.1-0.7c0-0.2,0.1-0.3,0.1-0.5c0-0.1,0.1-0.2,0.1-0.4
		c0-0.2,0.1-0.4,0.1-0.6c0-0.1,0-0.1,0-0.2c0-0.2,0.1-0.4,0.1-0.5c0-0.2,0.1-0.4,0.1-0.5c0,0,0,0,0,0c0.1-0.5,0.2-1,0.4-1.5
		c0.1-0.4,0.2-0.7,0.3-1.1c0-0.1,0.1-0.2,0.1-0.3c0.1-0.3,0.1-0.5,0.2-0.8c0-0.1,0.1-0.3,0.1-0.4v0c0.1-0.3,0.2-0.6,0.3-0.8
		c0.4-1.4,0.9-2.9,1.5-4.5c0,0,0-0.1,0-0.1c0.1-0.3,0.2-0.6,0.3-0.9c0.1-0.2,0.2-0.4,0.2-0.6c0.2-0.5,0.4-1,0.6-1.5
		c0.2-0.5,0.4-1,0.7-1.5c0.2-0.5,0.5-1,0.7-1.6c0.1-0.3,0.3-0.5,0.4-0.8c0.2-0.4,0.4-0.9,0.6-1.3c0.2-0.4,0.4-0.8,0.7-1.3
		c0,0,0,0,0,0c0.3-0.5,0.6-1,0.8-1.5c0.2-0.3,0.3-0.6,0.5-0.8c0.2-0.3,0.3-0.6,0.5-0.8c0.5-0.8,1-1.7,1.6-2.5
		c0.2-0.3,0.4-0.6,0.6-0.9c0.6-0.8,1.2-1.7,1.8-2.5c0.1-0.1,0.2-0.2,0.2-0.3c0.2-0.2,0.4-0.5,0.6-0.7c0.2-0.2,0.4-0.5,0.6-0.7
		c0.2-0.2,0.4-0.5,0.6-0.7c4.4-5.2,10-9.8,17.1-12.8c1.7,0.3,13.1,2.5,38.7,19.4c13.4,10.1,26.6,23.4,36.2,38.9
		C579.9,497.9,576,507,570.6,512.5z"/>
	<path class="st42" d="M575.1,506.1c-1.3,2.5-2.8,4.6-4.5,6.4c-7.4,7.7-17.4,8.3-17.4,8.3c-41.3-8.3-67.9-31-78.4-41.7
		c-3.1-3.8-4.5-6.5-4.9-7.3c0,0,0,0,0,0c0-0.1,0-0.2,0.1-0.3c0-0.2,0.1-0.5,0.1-0.7c0-0.2,0.1-0.3,0.1-0.5c0-0.2,0.1-0.4,0.1-0.6
		c0-0.2,0.1-0.3,0.1-0.5c0.2-0.7,0.3-1.5,0.6-2.3c0-0.2,0.1-0.4,0.2-0.6c0.1-0.6,0.3-1.1,0.5-1.7c0.1-0.2,0.1-0.4,0.2-0.6
		c1-3.4,2.4-7.3,4.3-11.5c0.1-0.3,0.3-0.5,0.4-0.8c0.4-0.9,0.8-1.7,1.3-2.6c0.3-0.5,0.6-1,0.8-1.5c0.2-0.3,0.3-0.6,0.5-0.8
		c0.2-0.3,0.3-0.6,0.5-0.8c0.2-0.3,0.3-0.6,0.5-0.8c0.3-0.6,0.7-1.1,1.1-1.7c0.2-0.3,0.4-0.6,0.6-0.9c0.7-1,1.4-1.9,2.1-2.9
		c0,0,0,0,0,0c-0.1,0.2-0.2,0.5-0.3,0.7c-3,8.2-3.8,14.5-3.8,14.5S521,494.7,575.1,506.1z"/>
	<path class="st13" d="M570.8,512.3c-7.4,7.8-17.6,8.5-17.6,8.5c-26.5-5.3-47-16.6-61-26.9c-7.8-5.6-13.6-11-17.3-14.8
		c0,0,0,0-0.1-0.1l0,0c-3-3.8-4.5-6.4-4.9-7.3c0,0,0,0,0,0c0-0.1,0-0.2,0.1-0.3c0-0.2,0.1-0.5,0.1-0.7c0-0.2,0.1-0.3,0.1-0.5
		c0-0.1,0.1-0.2,0.1-0.4c0-0.1,0-0.2,0.1-0.3c0-0.1,0-0.2,0.1-0.3c0-0.1,0-0.1,0-0.2c0-0.2,0.1-0.4,0.1-0.5c0-0.2,0.1-0.4,0.1-0.5
		c0,0,0,0,0,0c0.1-0.4,0.2-0.8,0.3-1.2c0-0.1,0-0.2,0.1-0.3c0-0.1,0.1-0.2,0.1-0.3c0.1-0.3,0.1-0.6,0.2-0.8c0-0.1,0.1-0.2,0.1-0.3
		c0.1-0.2,0.1-0.4,0.2-0.6c0-0.1,0-0.1,0-0.2c0-0.1,0.1-0.3,0.1-0.4v0c0.1-0.3,0.2-0.6,0.3-0.8c0.4-1.4,0.9-2.9,1.5-4.5
		c0,0,0-0.1,0-0.1c0.1-0.3,0.2-0.6,0.3-0.9c0.1-0.2,0.2-0.4,0.2-0.6c0.2-0.5,0.4-1,0.6-1.5c0.2-0.5,0.4-1,0.7-1.5
		c0.2-0.5,0.5-1,0.7-1.6c0.1-0.3,0.3-0.5,0.4-0.8c0.2-0.4,0.4-0.9,0.6-1.3c0.2-0.4,0.4-0.8,0.7-1.3c0,0,0,0,0,0
		c0.3-0.5,0.6-1,0.8-1.5c0.2-0.3,0.3-0.6,0.5-0.8c0.2-0.3,0.3-0.6,0.5-0.8c0.2-0.3,0.3-0.6,0.5-0.8c0.3-0.6,0.7-1.1,1.1-1.7
		c0.2-0.3,0.4-0.6,0.6-0.9c0.7-1,1.4-1.9,2.1-2.9c0.2-0.2,0.4-0.5,0.6-0.7c0.2-0.2,0.4-0.5,0.6-0.7c0.2-0.2,0.4-0.5,0.6-0.7
		c1-1.2,2.1-2.4,3.3-3.5c-2,2-3.8,4.2-5.3,6.4c-10.7,14.8-13,32.2-13,32.2s28.8,36.3,83.6,47.4c0,0,9.1-0.6,16.4-7.3l0,0
		C570.7,512.4,570.8,512.4,570.8,512.3z"/>
	<path class="st43" d="M699.7,493.3c-0.3,0-0.6,0.1-0.9,0.1c-12.2-3.2-22-17.3-22-17.3l3.8-2.2c2.5-0.2,5-0.4,7.6-0.6
		C691.6,477.2,697.7,485.2,699.7,493.3z"/>
	<path class="st43" d="M819.5,479.8c-2,0.2-4,0.4-6,0.6c-6.3-2.6-10.4-8-10.4-8.4c0-0.4-0.6-5.7-0.8-7.8c3-0.2,6-0.5,8.8-0.7
		C813.2,467,817.9,475,819.5,479.8z"/>
	<path class="st44" d="M703.4,509c-0.1,0.8-0.5,1.3-1.1,1.7c-0.7,0.4-1.5,0.4-2.2-0.1c-13.3-9.6-38.8-43.8-45.4-52.9
		c-0.3-0.4-0.2-0.9,0.1-1.1c0.2-0.2,0.5-0.3,0.8-0.2C684.7,467.1,704.9,493.4,703.4,509z"/>
	<path class="st44" d="M820.7,493.8c0,0.1,0,0.2,0,0.3c-0.1,0.6-0.8,1-1.3,0.7c-15.7-7.1-33-37.3-37.5-45.5
		c-0.4-0.8,0.3-1.6,1.1-1.3c0.6,0.2,1.1,0.4,1.7,0.6c0,0,0,0,0,0C803.3,456.2,823.1,476.9,820.7,493.8z"/>
	<path class="st12" d="M932,430.9c0,1.9-0.1,3.4-0.3,4.6c-90.3,10.6-370.2,14.6-370.2,14.6l5.6-8.1c115.1-0.3,274.5-2.4,364-11.1
		C931.5,430.9,931.8,430.9,932,430.9z"/>
	<path class="st10" d="M170.3,517.4c-15.3,2.5-19.2,5.2-19.2,5.2l-67,3.9l-1.9,14.7c0,0-0.8-0.2-2.3-0.2c-0.3-6.4-5-14-8.6-19
		C85.1,521,155.8,516.5,170.3,517.4z"/>
	<path class="st45" d="M292.8,403.9l-3.9-3.6c-1.5-1.4-1.6-3.8-0.3-5.3l7.5-8.2c1.4-1.5,3.8-1.6,5.3-0.3l3.9,3.6
		c1.5,1.4,1.6,3.8,0.3,5.3l-7.5,8.2C296.7,405.1,294.3,405.2,292.8,403.9z"/>
	<circle class="st46" cx="296.9" cy="395" r="3.9"/>
	<path class="st47" d="M661.2,556.2c2.7,6.5,7.2,22.5-4,38.4c-0.3,0.4-0.2,0.8,0.1,1.2c4,4.6,7.1,7.9,8.3,9.3c0.4,0.4,1,0.4,1.4,0
		c2.7-3,13.6-14.1,7.6-40.9c0-0.2-9.7-7.6-12-9.2C661.8,554.5,660.8,555.4,661.2,556.2z"/>
	<path class="st46" d="M276.8,294.3c3.3,8.7,7,23.8,2,39.3c-0.4,1.3,0,2.7,1.1,3.5c6,4.4,10.6,7.2,13.6,8.8c1.9,1.1,4.3-0.1,4.6-2.3
		c1.2-8.8,2.9-29.6-5-46.5c-0.3-0.6-0.8-1.1-1.4-1.4c-4-2.1-7.7-3.9-10.6-5.3C278.6,289.2,275.8,291.7,276.8,294.3z"/>
	<path class="st48" d="M298.1,343.6c-0.3,2.2-2.7,3.4-4.6,2.3c-3-1.7-7.6-4.5-13.6-8.8c-1.1-0.8-1.5-2.2-1.1-3.5
		c5-15.4,1.3-30.6-2-39.3c-0.4-1-0.2-1.9,0.2-2.7c-0.1,0.5,0,1,0.2,1.5c3.3,8.7,7,23.8,2,39.3c-0.4,1.3,0,2.7,1.1,3.5
		c6,4.4,10.6,7.2,13.6,8.8C295.5,345.6,297.3,345,298.1,343.6z"/>
	<line class="st49" x1="326.1" y1="368.5" x2="353.5" y2="387.3"/>
	<path class="st50" d="M702.3,510.6c-0.7,0.4-1.5,0.4-2.2-0.1c-13.3-9.6-38.8-43.8-45.4-52.9c-0.3-0.4-0.2-0.9,0.1-1.1
		C658.1,459.2,683.4,481.4,702.3,510.6z"/>
	<path class="st50" d="M820.7,493.8c0,0.1,0,0.2,0,0.3c-0.1,0.6-0.8,1-1.3,0.7c-15.7-7.1-33-37.3-37.5-45.5
		c-0.4-0.8,0.3-1.6,1.1-1.3c0.6,0.2,1.1,0.4,1.7,0.6c0,0,0,0,0,0C791.3,455.8,813.8,480.2,820.7,493.8z"/>
	<path class="st43" d="M634.3,504.3l-0.9,0.2l-2.3,0.5l-17.7-24.9c0.9-0.2,1.9-0.4,2.9-0.5L634.3,504.3z"/>
	
		<ellipse transform="matrix(0.2211 -0.9753 0.9753 0.2211 -58.5293 831.2919)" class="st51" cx="491.1" cy="452.3" rx="30.2" ry="26.2"/>
	
		<ellipse transform="matrix(0.2211 -0.9753 0.9753 0.2211 -57.7332 827.6805)" class="st52" cx="489.3" cy="450" rx="24.6" ry="20"/>
	
		<ellipse transform="matrix(0.2211 -0.9753 0.9753 0.2211 -56.2254 828.1969)" class="st9" cx="490.4" cy="449.3" rx="24.5" ry="19.9"/>
	<path class="st53" d="M501,468.7c-4.6,4-10.4,5.8-16.1,4.5c-10.7-2.4-17-15.1-14-28.3c2-8.9,7.7-15.7,14.4-18.5
		c-4.1,3.5-7.4,8.8-8.8,15c-3,13.2,3.3,25.9,14,28.3C494.1,470.5,497.7,470.1,501,468.7z"/>
	<g>
		<path class="st37" d="M540.3,473.9c-0.8,3.4-2.5,8.6-5.6,12.2l-1.9-2.9c3.1-4.1,4.5-10.3,4.9-12.6L540.3,473.9z"/>
	</g>
	<g>
		<path class="st37" d="M233,502.5c-0.8,3.4-2.5,8.6-5.6,12.2l-1.9-2.9c3.1-4.1,4.5-10.3,4.9-12.6L233,502.5z"/>
	</g>
	<path class="st54" d="M521.5,460.4l-0.4,1l-2.1,5.5l-4.4-2.6c-5.5,12.6-18,20.2-30.1,17.4c-10.5-2.4-17.9-11.8-19.4-23.2
		c2.6,9.4,9.4,16.9,18.6,19c14.1,3.2,28.5-7.4,32.2-23.7c0.9-4.1,1.1-8.2,0.6-12c1.3,4.6,1.5,9.6,0.6,14.8L521.5,460.4z"/>
	<polygon class="st53" points="521.5,460.4 521.1,461.4 516.8,457.7 517,456.6 	"/>
	<path class="st2" d="M877.4,600.6l-171.8,10.6c-7.2-10.1-10-16.3-10-16.3l176.2,2L877.4,600.6z"/>
	<g>
		<path class="st55" d="M213.8,269l-0.6,2.1l-1.7,5.9l-0.5,1.6c-1.2-0.2-2.3-0.4-3.5-0.5c-1.4-0.2-2.9-0.3-4.3-0.4
			c-2.7-0.3-5.4-0.5-8-0.7c-9.7-0.8-17.1-1.1-17.1-1.4c0-0.3,7-6.1,8.6-7.5c0.2-0.2,0.4-0.3,0.4-0.3s2.8,0.1,6.9,0.2
			c2.7,0.1,5.9,0.2,9.3,0.4c2.6,0.1,5.2,0.3,7.7,0.4C212,268.9,212.9,269,213.8,269z"/>
		<path class="st55" d="M236.2,287.7c-1.2-0.5-2.4-1.1-3.6-1.6c-1.4-0.6-2.9-1.3-4.4-1.9l0,0c-1.4-0.6-2.9-1.2-4.3-1.7h0
			c-3.4-1.3-6.9-2.4-10.3-3.2l1.7-5.8l0.6-2.2l0.6-2c0,0,0.1,0,0.1,0c3.3,0.3,6,0.6,7.4,1c1.7,0.4,3.8,1,6.2,2
			c1.3,0.5,2.7,1.2,4.1,2l0.4,2.7L236.2,287.7z"/>
		<path class="st55" d="M251.3,294.8c-3.4-1.4-7.6-3.5-12.3-5.8l-1.1-8.7l-0.4-3.1l-0.1-1c3.8,2.7,7.7,6.6,11,12.4
			c0.9,1.6,1.8,3.4,2.6,5.3C251.1,294.2,251.2,294.5,251.3,294.8z"/>
	</g>
	<g>
		<g>
			<path class="st56" d="M320.3,337.8c0.1,1.1-0.7,2.1-1.9,2.2c-1.1,0.1-2.1-0.7-2.2-1.9l-0.5-6.9c0-0.2,0-0.3,0-0.5
				c0.2-0.9,0.9-1.6,1.8-1.7l0,0c1.1-0.1,2.1,0.8,2.1,1.9l0.2,2.4L320.3,337.8z"/>
			<path class="st57" d="M320,333.3l-4.2-2.6c0.2-0.9,0.9-1.6,1.8-1.7l0,0c1.1-0.1,2.1,0.8,2.1,1.9L320,333.3z"/>
		</g>
		<g>
			<path class="st56" d="M330.2,344.6c0.1,1.1-0.7,2.1-1.9,2.2c-1.1,0.1-2.1-0.7-2.2-1.9l-0.5-6.9c0-0.2,0-0.3,0-0.5
				c0.2-0.9,0.9-1.6,1.8-1.7l0,0c1.1-0.1,2.1,0.8,2.1,1.9l0.2,2.4L330.2,344.6z"/>
			<path class="st57" d="M329.8,340.1l-4.2-2.6c0.2-0.9,0.9-1.6,1.8-1.7l0,0c1.1-0.1,2.1,0.8,2.1,1.9L329.8,340.1z"/>
		</g>
		<g>
			<path class="st56" d="M340,351.4c0.1,1.1-0.7,2.1-1.9,2.2c-1.1,0.1-2.1-0.7-2.2-1.9l-0.5-6.9c0-0.2,0-0.3,0-0.5
				c0.2-0.9,0.9-1.6,1.8-1.7l0,0c1.1-0.1,2.1,0.8,2.1,1.9l0.2,2.4L340,351.4z"/>
			<path class="st57" d="M339.7,346.9l-4.2-2.6c0.2-0.9,0.9-1.6,1.8-1.7l0,0c1.1-0.1,2.1,0.8,2.1,1.9L339.7,346.9z"/>
		</g>
		<g>
			<path class="st56" d="M349.9,358.3c0.1,1.1-0.7,2.1-1.9,2.2c-1.1,0.1-2.1-0.7-2.2-1.9l-0.5-6.9c0-0.2,0-0.3,0-0.5
				c0.2-0.9,0.9-1.6,1.8-1.7l0,0c1.1-0.1,2.1,0.8,2.1,1.9l0.2,2.4L349.9,358.3z"/>
			<path class="st57" d="M349.5,353.7l-4.2-2.6c0.2-0.9,0.9-1.6,1.8-1.7l0,0c1.1-0.1,2.1,0.8,2.1,1.9L349.5,353.7z"/>
		</g>
		<g>
			<path class="st56" d="M359.7,365.1c0.1,1.1-0.7,2.1-1.9,2.2c-1.1,0.1-2.1-0.7-2.2-1.9l-0.5-6.9c0-0.2,0-0.3,0-0.5
				c0.2-0.9,0.9-1.6,1.8-1.7l0,0c1.1-0.1,2.1,0.8,2.1,1.9l0.2,2.4L359.7,365.1z"/>
			<path class="st57" d="M359.3,360.5l-4.2-2.6c0.2-0.9,0.9-1.6,1.8-1.7l0,0c1.1-0.1,2.1,0.8,2.1,1.9L359.3,360.5z"/>
		</g>
		<g>
			<path class="st56" d="M369.5,371.9c0.1,1.1-0.7,2.1-1.9,2.2c-1.1,0.1-2.1-0.7-2.2-1.9l-0.5-6.9c0-0.2,0-0.3,0-0.5
				c0.2-0.9,0.9-1.6,1.8-1.7l0,0c1.1-0.1,2.1,0.8,2.1,1.9l0.2,2.4L369.5,371.9z"/>
			<path class="st57" d="M369.2,367.4l-4.2-2.6c0.2-0.9,0.9-1.6,1.8-1.7l0,0c1.1-0.1,2.1,0.8,2.1,1.9L369.2,367.4z"/>
		</g>
		<g>
			<path class="st56" d="M379.4,378.7c0.1,1.1-0.7,2.1-1.9,2.2c-1.1,0.1-2.1-0.7-2.2-1.9l-0.5-6.9c0-0.2,0-0.3,0-0.5
				c0.2-0.9,0.9-1.6,1.8-1.7l0,0c1.1-0.1,2.1,0.8,2.1,1.9l0.2,2.4L379.4,378.7z"/>
			<path class="st57" d="M379,374.2l-4.2-2.6c0.2-0.9,0.9-1.6,1.8-1.7l0,0c1.1-0.1,2.1,0.8,2.1,1.9L379,374.2z"/>
		</g>
		<g>
			<path class="st56" d="M389.2,385.5c0.1,1.1-0.7,2.1-1.9,2.2c-1.1,0.1-2.1-0.7-2.2-1.9l-0.5-6.9c0-0.2,0-0.3,0-0.5
				c0.2-0.9,0.9-1.6,1.8-1.7l0,0c1.1-0.1,2.1,0.8,2.1,1.9l0.2,2.4L389.2,385.5z"/>
			<path class="st57" d="M388.9,381l-4.2-2.6c0.2-0.9,0.9-1.6,1.8-1.7l0,0c1.1-0.1,2.1,0.8,2.1,1.9L388.9,381z"/>
		</g>
		<g>
			<path class="st56" d="M399.1,392.4c0.1,1.1-0.7,2.1-1.9,2.2c-1.1,0.1-2.1-0.7-2.2-1.9l-0.5-6.9c0-0.2,0-0.3,0-0.5
				c0.2-0.9,0.9-1.6,1.8-1.7l0,0c1.1-0.1,2.1,0.8,2.1,1.9l0.2,2.4L399.1,392.4z"/>
			<path class="st57" d="M398.7,387.8l-4.2-2.6c0.2-0.9,0.9-1.6,1.8-1.7l0,0c1.1-0.1,2.1,0.8,2.1,1.9L398.7,387.8z"/>
		</g>
		<g>
			<path class="st56" d="M408.9,399.2c0.1,1.1-0.7,2.1-1.9,2.2c-1.1,0.1-2.1-0.7-2.2-1.9l-0.5-6.9c0-0.2,0-0.3,0-0.5
				c0.2-0.9,0.9-1.6,1.8-1.7l0,0c1.1-0.1,2.1,0.8,2.1,1.9l0.2,2.4L408.9,399.2z"/>
			<path class="st57" d="M408.5,394.6l-4.2-2.6c0.2-0.9,0.9-1.6,1.8-1.7l0,0c1.1-0.1,2.1,0.8,2.1,1.9L408.5,394.6z"/>
		</g>
		<g>
			<path class="st56" d="M418.7,406c0.1,1.1-0.7,2.1-1.9,2.2c-1.1,0.1-2.1-0.7-2.2-1.9l-0.5-6.9c0-0.2,0-0.3,0-0.5
				c0.2-0.9,0.9-1.6,1.8-1.7l0,0c1.1-0.1,2.1,0.8,2.1,1.9l0.2,2.4L418.7,406z"/>
			<path class="st57" d="M418.4,401.5l-4.2-2.6c0.2-0.9,0.9-1.6,1.8-1.7l0,0c1.1-0.1,2.1,0.8,2.1,1.9L418.4,401.5z"/>
		</g>
		<g>
			<path class="st56" d="M428.6,412.8c0.1,1.1-0.7,2.1-1.9,2.2c-1.1,0.1-2.1-0.7-2.2-1.9l-0.5-6.9c0-0.2,0-0.3,0-0.5
				c0.2-0.9,0.9-1.6,1.8-1.7l0,0c1.1-0.1,2.1,0.8,2.1,1.9l0.2,2.4L428.6,412.8z"/>
			<path class="st57" d="M428.2,408.3l-4.2-2.6c0.2-0.9,0.9-1.6,1.8-1.7l0,0c1.1-0.1,2.1,0.8,2.1,1.9L428.2,408.3z"/>
		</g>
		<g>
			<path class="st56" d="M438.4,419.6c0.1,1.1-0.7,2.1-1.9,2.2c-1.1,0.1-2.1-0.7-2.2-1.9l-0.5-6.9c0-0.2,0-0.3,0-0.5
				c0.2-0.9,0.9-1.6,1.8-1.7l0,0c1.1-0.1,2.1,0.8,2.1,1.9l0.2,2.4L438.4,419.6z"/>
			<path class="st57" d="M438,415.1l-4.2-2.6c0.2-0.9,0.9-1.6,1.8-1.7l0,0c1.1-0.1,2.1,0.8,2.1,1.9L438,415.1z"/>
		</g>
		<g>
			<path class="st56" d="M448.2,426.4c0.1,1.1-0.7,2.1-1.9,2.2c-1.1,0.1-2.1-0.7-2.2-1.9l-0.5-6.9c0-0.2,0-0.3,0-0.5
				c0.2-0.9,0.9-1.6,1.8-1.7l0,0c1.1-0.1,2.1,0.8,2.1,1.9l0.2,2.4L448.2,426.4z"/>
			<path class="st57" d="M447.9,421.9l-4.2-2.6c0.2-0.9,0.9-1.6,1.8-1.7l0,0c1.1-0.1,2.1,0.8,2.1,1.9L447.9,421.9z"/>
		</g>
		<g>
			<path class="st56" d="M458.1,433.3c0.1,1.1-0.7,2.1-1.9,2.2c-1.1,0.1-2.1-0.7-2.2-1.9l-0.5-6.9c0-0.2,0-0.3,0-0.5
				c0.2-0.9,0.9-1.6,1.8-1.7l0,0c1.1-0.1,2.1,0.8,2.1,1.9l0.2,2.4L458.1,433.3z"/>
			<path class="st57" d="M457.7,428.7l-4.2-2.6c0.2-0.9,0.9-1.6,1.8-1.7l0,0c1.1-0.1,2.1,0.8,2.1,1.9L457.7,428.7z"/>
		</g>
		<g>
			<path class="st56" d="M605.6,535.5c0.1,1.1-0.7,2.1-1.9,2.2c-1.1,0.1-2.1-0.7-2.2-1.9l-0.5-6.9c0-0.2,0-0.3,0-0.5
				c0.2-0.9,0.9-1.6,1.8-1.7l0,0c1.1-0.1,2.1,0.8,2.1,1.9l0.2,2.4L605.6,535.5z"/>
			<path class="st57" d="M605.3,531l-4.2-2.6c0.2-0.9,0.9-1.6,1.8-1.7l0,0c1.1-0.1,2.1,0.8,2.1,1.9L605.3,531z"/>
		</g>
		<g>
			<path class="st56" d="M615.5,542.4c0.1,1.1-0.7,2.1-1.9,2.2c-1.1,0.1-2.1-0.7-2.2-1.9l-0.5-6.9c0-0.2,0-0.3,0-0.5
				c0.2-0.9,0.9-1.6,1.8-1.7l0,0c1.1-0.1,2.1,0.8,2.1,1.9l0.2,2.4L615.5,542.4z"/>
			<path class="st57" d="M615.1,537.8l-4.2-2.6c0.2-0.9,0.9-1.6,1.8-1.7l0,0c1.1-0.1,2.1,0.8,2.1,1.9L615.1,537.8z"/>
		</g>
		<g>
			<path class="st56" d="M625.3,549.2c0.1,1.1-0.7,2.1-1.9,2.2c-1.1,0.1-2.1-0.7-2.2-1.9l-0.5-6.9c0-0.2,0-0.3,0-0.5
				c0.2-0.9,0.9-1.6,1.8-1.7l0,0c1.1-0.1,2.1,0.8,2.1,1.9l0.2,2.4L625.3,549.2z"/>
			<path class="st57" d="M625,544.6l-4.2-2.6c0.2-0.9,0.9-1.6,1.8-1.7l0,0c1.1-0.1,2.1,0.8,2.1,1.9L625,544.6z"/>
		</g>
		<g>
			<path class="st56" d="M635.2,556c0.1,1.1-0.7,2.1-1.9,2.2c-1.1,0.1-2.1-0.7-2.2-1.9l-0.5-6.9c0-0.2,0-0.3,0-0.5
				c0.2-0.9,0.9-1.6,1.8-1.7l0,0c1.1-0.1,2.1,0.8,2.1,1.9l0.2,2.4L635.2,556z"/>
			<path class="st57" d="M634.8,551.5l-4.2-2.6c0.2-0.9,0.9-1.6,1.8-1.7l0,0c1.1-0.1,2.1,0.8,2.1,1.9L634.8,551.5z"/>
		</g>
		<g>
			<path class="st56" d="M645,562.8c0.1,1.1-0.7,2.1-1.9,2.2c-1.1,0.1-2.1-0.7-2.2-1.9l-0.5-6.9c0-0.2,0-0.3,0-0.5
				c0.2-0.9,0.9-1.6,1.8-1.7l0,0c1.1-0.1,2.1,0.8,2.1,1.9l0.2,2.4L645,562.8z"/>
			<path class="st57" d="M644.6,558.3l-4.2-2.6c0.2-0.9,0.9-1.6,1.8-1.7l0,0c1.1-0.1,2.1,0.8,2.1,1.9L644.6,558.3z"/>
		</g>
		<g>
			<path class="st56" d="M654.8,569.6c0.1,1.1-0.7,2.1-1.9,2.2c-1.1,0.1-2.1-0.7-2.2-1.9l-0.5-6.9c0-0.2,0-0.3,0-0.5
				c0.2-0.9,0.9-1.6,1.8-1.7l0,0c1.1-0.1,2.1,0.8,2.1,1.9l0.2,2.4L654.8,569.6z"/>
			<path class="st57" d="M654.5,565.1l-4.2-2.6c0.2-0.9,0.9-1.6,1.8-1.7l0,0c1.1-0.1,2.1,0.8,2.1,1.9L654.5,565.1z"/>
		</g>
	</g>
	<path class="st58" d="M186.9,551.9c-16.1-9.5-41.4-47.4-41.4-47.4c1.6,0.1,3.6,0.6,5.8,1.4c12.8,4.5,33.7,18.1,33.7,18.1
		s1.2,11.3,1.7,25.4C186.8,550.3,186.9,551.1,186.9,551.9z"/>
	<path class="st53" d="M276.3,519.8c-27.4-20.3-82.7-53.7-82.7-53.7l-3-9c2-1.2,4.1-2.2,6.3-2.8c2.4,0.5,19.7,4.4,35.9,18.2
		c0-0.1,0-0.1,0-0.2c14.1,12.2,28.2,28.3,39.7,42.4c1.2,1.5,2.5,3,3.6,4.5C276.2,519.4,276.3,519.6,276.3,519.8z"/>
	<path class="st59" d="M186.9,551.9c-16.1-9.5-41.4-47.4-41.4-47.4c1.6,0.1,3.6,0.6,5.8,1.4c11.9,11.1,31.2,37.6,35.4,43.5
		C186.8,550.3,186.9,551.1,186.9,551.9z"/>
	
		<ellipse transform="matrix(0.2639 -0.9646 0.9646 0.2639 -328.1555 529.7643)" class="st60" cx="183" cy="479.9" rx="29.4" ry="23.5"/>
	
		<ellipse transform="matrix(0.2639 -0.9646 0.9646 0.2639 -327.7386 525.7321)" class="st13" cx="180.6" cy="477.6" rx="25.4" ry="20.2"/>
	
		<ellipse transform="matrix(0.2639 -0.9646 0.9646 0.2639 -328.8195 524.9971)" class="st21" cx="179.5" cy="477.9" rx="25.4" ry="20.2"/>
	<path class="st53" d="M195.6,491.3c-5.3,8.7-14.3,13.5-22.8,11.2c-10.8-2.9-16.5-16.3-12.8-29.9c1.5-5.4,4.3-10.1,7.8-13.5
		c-1.5,2.4-2.6,5.1-3.4,8c-3.7,13.5,2,26.9,12.8,29.9C183.6,498.8,190.4,496.4,195.6,491.3z"/>
	<path class="st13" d="M195.4,491.5c-5.3,8.5-14.3,13.2-22.6,10.9c-10.8-2.9-16.5-16.3-12.8-29.9c1-3.7,2.6-7,4.6-9.8
		c-1.5,2.4-2.7,5.2-3.6,8.2c-3.7,13.6,2,26.9,12.8,29.9C181.7,503.1,190.1,499.1,195.4,491.5z"/>
	<path class="st61" d="M258.4,551.9c0,0-1.6-0.5-4.2-1.4c21.1-6.6,19.4-28.8,18.3-35.8c1.2,1.5,2.5,3,3.6,4.5
		C283.9,549.6,258.4,551.9,258.4,551.9z"/>
	<polygon class="st60" points="204.1,485 208.6,488.2 206.1,495.6 200.5,491.6 	"/>
	<g>
		<ellipse class="st31" cx="225.2" cy="380.5" rx="3.1" ry="4.7"/>
		<path class="st62" d="M228.3,380.5c0,2.6-1.4,4.7-3.1,4.7c-0.6,0-1.2-0.3-1.7-0.8c0.2,0.1,0.4,0.1,0.6,0.1c1.7,0,3.1-2.1,3.1-4.7
			c0-1.6-0.5-3-1.3-3.9C227.2,376.4,228.3,378.3,228.3,380.5z"/>
	</g>
	<g>
		
			<ellipse transform="matrix(0.2763 -0.9611 0.9611 0.2763 -125.5069 451.9279)" class="st31" cx="237.3" cy="309.3" rx="3.8" ry="3.1"/>
		<path class="st62" d="M240.3,310.1c-0.6,2-2.4,3.3-4,2.8c-0.6-0.2-1.1-0.6-1.5-1.1c0.2,0.1,0.4,0.2,0.6,0.3c1.6,0.5,3.4-0.8,4-2.8
			c0.4-1.3,0.2-2.5-0.4-3.4C240.2,306.6,240.8,308.4,240.3,310.1z"/>
	</g>
	<g>
		<ellipse class="st31" cx="208.4" cy="378.5" rx="3.1" ry="4.7"/>
		<path class="st62" d="M211.5,378.5c0,2.6-1.4,4.7-3.1,4.7c-0.6,0-1.2-0.3-1.7-0.8c0.2,0.1,0.4,0.1,0.6,0.1c1.7,0,3.1-2.1,3.1-4.7
			c0-1.6-0.5-3-1.3-3.9C210.4,374.3,211.5,376.2,211.5,378.5z"/>
	</g>
	<path class="st2" d="M745,633.9c0,0-1.8,8.4-8.7,13.4c0,0-1.7-0.2-4.8-0.6c5.9-5.5,10.5-14.6,11.4-16.5
		C744.3,632.6,745,633.9,745,633.9z"/>
	<path class="st53" d="M203.2,277.6c-2.7-0.3-5.4-0.5-8-0.7l-8.4-8.9c0.2-0.2,0.4-0.3,0.4-0.3s2.8,0.1,6.9,0.2L203.2,277.6z"/>
	<path class="st53" d="M211,268.8l2.2,2.3l-1.7,5.9l-7.8-8.3l-0.3-0.4C205.9,268.5,208.5,268.7,211,268.8z"/>
	<path class="st53" d="M223.9,282.4c-3.4-1.3-6.9-2.4-10.3-3.2l1.7-5.8L223.9,282.4z"/>
	<path class="st53" d="M232.6,286c-1.4-0.6-2.9-1.3-4.4-1.9l0,0L216,271.2l0.6-2c0,0,0.1,0,0.1,0L232.6,286z"/>
	<path class="st53" d="M234.4,274.3l0.4,2.7l-4.5-4.7C231.6,272.8,233,273.5,234.4,274.3z"/>
	<path class="st53" d="M251,293.9l-0.2-0.1l-12.8-13.5l-0.4-3.1l10.8,11.4C249.3,290.2,250.1,291.9,251,293.9z"/>
	
		<ellipse transform="matrix(0.9753 -0.2207 0.2207 0.9753 -106.7754 99.1978)" class="st9" cx="390.5" cy="527.4" rx="4.8" ry="2.2"/>
	<ellipse transform="matrix(0.9753 -0.2207 0.2207 0.9753 -102.2462 107.028)" class="st9" cx="427.8" cy="511" rx="4.8" ry="2.2"/>
</g>
<g>
	<g>
		<polygon class="st63" points="590.3,806.6 571.3,808.8 589.8,811.6 657.2,811 		"/>
		<path class="st63" d="M765.2,758.5l-40.3,46.5l-59.4-16.3l-17-4.6c0,0,26.9-3.4,85.3-27.4c2.4-1,4.8-2,7.3-3
			C762.7,758.5,765.2,758.5,765.2,758.5z"/>
		<polygon class="st63" points="356.1,798 352.7,798 352.6,794.5 356,794.5 		"/>
		<path class="st63" d="M733.8,756.8c-10.9,14.1-66.8,31.5-68.3,32l-17-4.6C648.5,784.1,675.5,780.7,733.8,756.8z"/>
		<polygon class="st63" points="348.2,798.3 344.8,798.3 344.6,794.8 348.1,794.7 		"/>
		<path class="st63" d="M764,812.5c0,0-1.8,2.4-8.7,3.8c0,0-34.9-1.1-80.4-3.4c-11-0.6-22.7-1.2-34.6-2c-20.2-1.2-41.3-2.7-61.4-4.5
			c-43.1-3.9-84.3-13.2-84.3-13.2s-26.5,0.7-80.7-7.4c-26.4-3.6-59-10.3-73.1-13.7c-14.1-3.4-32.4-11.7-32.4-11.7
			s-90.4-17.3-119.8-24.3c-0.2-0.1-0.5-0.1-0.7-0.2c-14.3-3.5-23.7-7.7-27.9-11.5c-2-1.8-2.9-3.5-2.6-5c0.3-1.8,2.1-3.3,5.5-4.4
			c12.6-3.9,49.2-6.8,61.9-7.1c12.8-0.3,46.7,1.6,77.9,6.8c31.2,5.1,202.3,38.3,202.3,38.3s183.7,34.9,216.7,44.8
			c16.8,4.6,28.6,8.9,35.3,11.7C761.7,811.4,764,812.5,764,812.5z"/>
		<path class="st63" d="M373.9,774.8c0,0-37.6,0.9-78.6,2c-2.5,0.1-5,0.1-7.6,0.2c-1.4,0-2.7,0.1-4.1,0.1c-4,0.1-8,0.2-12,0.3
			c-35.6,0.9-68.7,1.8-77,2.1c-1.9,0.1-3.7,0.2-5.3,0.2c-15.3,0.7-19.2,1.5-19.2,1.5l-67,1.1l-1.9,4.1c0,0-0.8-0.1-2.3-0.1
			c-0.3-1.8-5-4-8.6-5.4c-2.3-0.9-4.2-1.5-4.2-1.5l-7.2,0.1c0,0,0,0,0-0.5c47.6-2.7,112.7-7.5,162.8-11.3c0.4,0,0.9-0.1,1.3-0.1
			c5-0.4,9.9-0.8,14.6-1.1c34.7-2.7,58.9-4.6,58.9-4.6l13.9,3.1L373.9,774.8z"/>
		<path class="st64" d="M764,812.5c0,0-1.8,2.4-8.7,3.8c0,0-1.7-0.1-4.8-0.2c-11.1-0.4-40.1-1.4-75.6-3.3c-11-0.6-22.7-1.2-34.6-2
			c-13.4-3.9-26.4-7.6-28.2-8.1c-4.1-1-109-19.7-109-19.7l58.7-3.9c0,0,119.5,24,139.9,27.4c19.6,3.3,36.1,5,55.5,2.8
			c2,0.8,3.6,1.5,4.7,2.1C763.3,812.2,764,812.5,764,812.5z"/>
		<path class="st64" d="M459.7,761.8l-6.5,2.2c0,0-48.7,1.3-53.1,0.9c-3.4-0.4-146.2-19.9-212.2-28.9c-14.3-3.5-23.7-7.7-27.9-11.5
			c-2-1.8-2.9-3.5-2.6-5c2.9-1,9-2.4,21-1.9c18.6,0.7,92.7,7,213.9,32C434.5,756.7,459.7,761.8,459.7,761.8z"/>
		<path class="st63" d="M295.3,776.7c-2.5,0.1-5,0.1-7.6,0.2c-1.4,0-2.7,0.1-4.1,0.1c-16.4-1.8-33.4-6.6-41.8-9.2
			c0.4,0,0.9-0.1,1.3-0.1c5-0.4,9.9-0.8,14.6-1.1C265.8,768.6,283.1,773,295.3,776.7z"/>
		<path class="st63" d="M97.1,784.2c1.2,0.7,2.3,1.4,2.8,2.1c-0.3,0-0.6,0-0.9,0C98.9,785.7,98.2,784.9,97.1,784.2z"/>
		<path class="st63" d="M511.7,771.3l-16.8,2.8c0,0-40.8-1.7-49.8-11.7c0,0,4.6-1.6,13.2-2.9c4-0.6,8.9-1,14.6-1.2
			c3-0.1,6.3-0.1,9.7,0c1,0,2.1,0.1,3.2,0.1c13,2.5,19.5,5.4,22.8,7.7C512.6,769.1,511.7,771.3,511.7,771.3z"/>
		<path class="st63" d="M373.9,774.8c0,0-0.7,0-2.1,0.1l-39.8-8.9l-13.9-3.1c0,0-31.2,2.5-73.4,5.7c-48.1,3.7-110.6,8.2-157.9,11
			c-0.2-0.1-0.3-0.1-0.3-0.1l-7.2,0.1c0,0,0,0,0-0.5c48-2.7,113.9-7.5,164.1-11.4c42.3-3.2,73.4-5.7,73.4-5.7l13.9,3.1L373.9,774.8z
			"/>
		<path class="st65" d="M480.4,759l-10.2,0.2l-21.6-0.9l-44.8-7.8c-0.1,0-0.3-0.1-0.4-0.1c1.8-0.4,3.7-0.7,5.8-1
			c6.9-0.9,13-0.2,19.4,0.7c3.5,0.5,7,1,10.4,1.6c7.7,1.2,15.1,2.5,22.6,3.9C467.9,756.7,474.2,757.8,480.4,759z"/>
		<path class="st64" d="M714.6,801.5c0,0-2.9,4.5,6.9,6.9c9.9,2.3,31.5-0.7,31.5-0.7L714.6,801.5z"/>
		<path class="st63" d="M426.6,787.5c-21-1.9-48.3-2.9-77.2-3.4c-5.6-0.1-11.2-0.2-16.8-0.2c-75.3-0.7-154.5,1.7-154.5,1.7l-5.6-4.3
			c58.7-2.9,107.9-3.8,143.4-3.9c12.1,0,22.7,0,31.5,0.1c20.4,0.2,31.5,0.6,31.5,0.6S418.2,782.2,426.6,787.5z"/>
		<path class="st63" d="M387.6,754.4c3-0.9,6.3-1.8,9.7-2.6c2-0.5,4-1,6.1-1.4c1.8-0.4,3.7-0.7,5.8-1c6.9-0.9,13-0.2,19.4,0.7
			c3.5,0.5,7,1,10.4,1.6c7.7,1.2,15.1,2.5,22.6,3.9c6.4,1.1,12.7,2.3,18.9,3.5c0.7,0.1,1.4,0.3,2.1,0.4"/>
		<polygon class="st63" points="365.4,777 352.8,787.8 352.9,789.5 368.6,777.2 		"/>
		<path class="st63" d="M334.9,769.6l21.6,5.9c0,0,0.2,13.5-2.6,18.5c-2.3,0-3.7,0-3.7,0s-0.1-8.8-3.5-12.4
			C343.3,778,334.9,769.6,334.9,769.6z"/>
		<path class="st63" d="M674.9,812.9c-12.6-0.7-25.9-1.4-39.6-2.3c-18.7-1.2-38-2.6-56.5-4.2c-43.1-3.9-84.3-13.2-84.3-13.2
			s-26.5,0.7-80.7-7.4c-26.4-3.6-59-10.3-73.1-13.7c-0.9-0.2-1.8-0.4-2.7-0.7c-0.3-0.1-0.6-0.2-0.9-0.3c-1.4-0.4-2.9-0.8-4.3-1.3
			c-0.3-0.1-0.7-0.2-1-0.3c-0.6-0.2-1.1-0.4-1.7-0.6c-0.3-0.1-0.6-0.2-0.9-0.3c-3.5-1.2-7-2.5-10-3.7c-0.2-0.1-0.4-0.2-0.6-0.2
			c-0.8-0.3-1.5-0.6-2.2-0.9c-0.3-0.1-0.5-0.2-0.8-0.3c-1.9-0.8-3.4-1.4-4.7-2c-1.7-0.7-2.7-1.2-2.7-1.2s-90.4-17.3-119.8-24.3
			c-14.7-3.5-24.3-7.8-28.7-11.7c0.3-0.3,0.7-0.6,1.3-0.8c0.1-0.1,0.3-0.1,0.5-0.2c0.1,0,0.1-0.1,0.2-0.1c0.2-0.1,0.4-0.1,0.6-0.2
			c0.1,0,0.1,0,0.2,0c0.1,0,0.1,0,0.2,0c0.1,0,0.2,0,0.3-0.1c0.1,0,0.2,0,0.4-0.1c0.3-0.1,0.7-0.1,1.1-0.2c0,0,0.1,0,0.1,0
			c0.1,0,0.3,0,0.4,0c0.3,0,0.6-0.1,1-0.1c0.2,0,0.3,0,0.5,0s0.4,0,0.6,0c0.3,0,0.5,0,0.8,0c9.9-0.1,70.6,3.2,166.4,22.2
			c45.8,7.9,53,9.7,53,9.7s47.6,6.2,57.5,8c4.6,4,15,9.3,49.8,11.7c25.4,4,126.7,23.5,164.3,32.6C668,808.9,672.6,811.3,674.9,812.9
			z"/>
		<path class="st63" d="M351.6,791.7c0,0-2.5,0.2-7,0c-2.4-2.7-7-5.3-12.1-7.7c-5.5-2.6-11.6-4.8-16.7-6.6c12.1,0,22.7,0,31.5,0.1
			l2,6.7L351.6,791.7z"/>
		<path class="st63" d="M635.3,810.6c-18.7-1.2-38-2.6-56.5-4.2c-43.1-3.9-84.3-13.2-84.3-13.2s-26.5,0.7-80.7-7.4
			c-26.4-3.6-59-10.3-73.1-13.7c-0.9-0.2-1.8-0.4-2.7-0.7c-0.3-0.1-0.6-0.2-0.9-0.3c-1.4-0.4-2.9-0.8-4.3-1.3
			c-0.3-0.1-0.7-0.2-1-0.3c-0.6-0.2-1.1-0.4-1.7-0.6c-0.3-0.1-0.6-0.2-0.9-0.3c-3.5-1.2-7-2.5-10-3.7c-0.2-0.1-0.4-0.2-0.6-0.2
			c-0.8-0.3-1.5-0.6-2.2-0.9c-0.3-0.1-0.5-0.2-0.8-0.3c-1.9-0.8-3.4-1.4-4.7-2c-1.7-0.7-2.7-1.2-2.7-1.2s-90.4-17.3-119.8-24.3
			c-14.7-3.5-24.3-7.8-28.7-11.7c0.3-0.3,0.7-0.6,1.3-0.8c0.1-0.1,0.3-0.1,0.5-0.2c0.1,0,0.1-0.1,0.2-0.1c0.2-0.1,0.4-0.1,0.6-0.2
			c0.1,0,0.1,0,0.2,0c0.1,0,0.1,0,0.2,0c0.1,0,0.2,0,0.3-0.1c0.1,0,0.2,0,0.4-0.1c0.3-0.1,0.7-0.1,1.1-0.2c0,0,0.1,0,0.1,0
			c0.1,0,0.3,0,0.4,0c0.3,0,0.6-0.1,1-0.1c0.2,0,0.3,0,0.5,0s0.4,0,0.6,0l251.9,44.8c3.9-1.3,6.3-2.4,6.3-2.4s34.7,13.3,63.4,16.4
			C511.7,783.9,590.5,802.8,635.3,810.6z"/>
		<polygon class="st63" points="356,794.9 344.6,794.9 344.6,793.7 356,793.6 		"/>
		<g>
			<g>
				<ellipse class="st63" cx="361.9" cy="800.3" rx="12.7" ry="5.1"/>
			</g>
			<g>
				<path class="st63" d="M349.3,800c-0.4,2.8,5,5.2,12,5.4c4.1,0.1,7.9-0.6,10.4-1.8c-2.5,1-6,1.7-9.8,1.6c-7-0.2-12.3-2.6-12-5.4
					c0.1-1.1,1.2-2.1,2.8-2.9C350.7,797.7,349.4,798.8,349.3,800z"/>
			</g>
			<g>
				<ellipse class="st63" cx="366.7" cy="800.4" rx="6.8" ry="2.7"/>
			</g>
			<path class="st63" d="M365.1,803c0.4,0,0.8,0.1,1.2,0.1c3.8,0.1,7-1.1,7.2-2.6c0.2-1.5-2.7-2.8-6.5-2.9c0,0-0.1,0-0.1,0
				c3.1,0.3,5.4,1.5,5.2,2.8C372,801.9,368.8,803.1,365.1,803z"/>
			<path class="st63" d="M359.3,800.2c-0.2,1.5,2.7,2.8,6.5,2.9c0.2,0,0.4,0,0.6,0c-3.1-0.3-5.2-1.5-5.1-2.8
				c0.2-1.4,3.1-2.5,6.6-2.6c-0.4-0.1-0.9-0.1-1.4-0.1C362.7,797.5,359.5,798.6,359.3,800.2z"/>
			<path class="st63" d="M359.9,800.2c-0.2,1.5,2.7,2.8,6.5,2.9c0.2,0,0.4,0,0.6,0c-3.1-0.3-5.2-1.5-5.1-2.8
				c0.2-1.4,3.1-2.5,6.6-2.6c-0.4-0.1-0.9-0.1-1.4-0.1C363.3,797.5,360.1,798.7,359.9,800.2z"/>
			<g>
				<ellipse class="st63" cx="367.9" cy="800.4" rx="3.1" ry="1.3"/>
			</g>
			<g>
				<ellipse class="st63" cx="367.2" cy="800.4" rx="3.1" ry="1.3"/>
			</g>
			<path class="st64" d="M358.5,797c0,0-9.4,4,2.3,7.6"/>
		</g>
		<g>
			<g>
				
					<ellipse transform="matrix(0.9995 -3.147858e-02 3.147858e-02 0.9995 -25.0268 11.0332)" class="st63" cx="337.9" cy="800.4" rx="11.4" ry="5"/>
			</g>
			<g>
				<path class="st63" d="M326.6,800c-0.8,2.7,3.6,5.1,9.8,5.3c3.7,0.1,7.2-0.6,9.6-1.7c-2.4,1-5.6,1.6-9.1,1.5
					c-6.2-0.2-10.6-2.6-9.8-5.3c0.3-1.1,1.4-2.1,3-2.9C328.3,797.7,327,798.8,326.6,800z"/>
			</g>
			<g>
				
					<ellipse transform="matrix(0.9995 -3.147858e-02 3.147858e-02 0.9995 -25.0301 11.2006)" class="st63" cx="343.2" cy="800.5" rx="2.8" ry="1.2"/>
			</g>
			<g>
				
					<ellipse transform="matrix(0.9995 -3.147858e-02 3.147858e-02 0.9995 -25.0257 11.1195)" class="st63" cx="340.6" cy="800.4" rx="5.3" ry="2.3"/>
			</g>
			<g>
				
					<ellipse transform="matrix(0.9995 -3.147858e-02 3.147858e-02 0.9995 -25.0293 11.1824)" class="st63" cx="342.6" cy="800.5" rx="2.8" ry="1.2"/>
			</g>
			<path class="st64" d="M335.4,797.1c0,0-9.1,3.8,0.8,7.4"/>
		</g>
		<g>
			<polygon class="st63" points="227.1,754.9 224.9,754.7 226.7,752.4 228.9,752.6 			"/>
			<polygon class="st63" points="221.8,754.7 219.6,754.6 221.3,752.3 223.6,752.4 			"/>
			<polygon class="st63" points="246,741.9 232.5,747.9 229.4,749.2 230.3,748 233.9,746.4 243.7,741.7 			"/>
			<path class="st63" d="M238.1,741.4c-1,1.2-2.5,3.1-4.3,5c-0.5,0.5-0.9,1-1.4,1.5c-1.5,1.6-3.1,3.1-4.4,4.1
				c-0.1,0.1-0.2,0.2-0.3,0.2c-1.5-0.1-2.5-0.1-2.5-0.1s0.1-0.1,0.2-0.3c0.2-0.3,0.5-0.7,0.9-1.3c1.3-1.9,3.3-5.1,3.1-6.7
				c-0.1-0.7-0.3-1.8-0.4-2.9c0,0,0,0,0,0L238.1,741.4z"/>
			<path class="st63" d="M232.1,741.1l-2.2,4.5l-2.4,5c0,0-0.4,0-1.1,0c-0.8,0-2-0.1-3.5-0.3l1.5-9.7c1.6,0.1,3.1,0.2,4.6,0.3
				C230.1,740.9,231.1,741,232.1,741.1z"/>
			<polygon class="st63" points="228.7,752.8 221.2,752.4 221.8,751.6 229.3,752 			"/>
			<g>
				<g>
					
						<ellipse transform="matrix(0.9975 -7.009335e-02 7.009335e-02 0.9975 -52.4682 17.963)" class="st63" cx="229.7" cy="756.6" rx="8.7" ry="3.3"/>
				</g>
				<g>
					<path class="st63" d="M221.6,755.9c-1.7,1.8,0.5,3.6,5,4c2.7,0.2,5.5-0.1,7.7-0.8c-2.2,0.6-4.8,0.8-7.3,0.6
						c-4.5-0.4-6.7-2.2-5-4c0.7-0.7,1.9-1.3,3.4-1.8C223.7,754.4,222.3,755.1,221.6,755.9z"/>
				</g>
				<g>
					
						<ellipse transform="matrix(0.9975 -7.009335e-02 7.009335e-02 0.9975 -52.478 18.182)" class="st63" cx="232.8" cy="756.9" rx="4.7" ry="1.8"/>
				</g>
				<path class="st63" d="M230.4,758.5c0.2,0,0.5,0.1,0.8,0.1c2.4,0.2,5.1-0.4,6.1-1.4c0.9-1-0.3-1.9-2.7-2.2c0,0,0,0,0,0
					c1.9,0.3,2.8,1.2,1.9,2.1C235.5,758.1,232.8,758.7,230.4,758.5z"/>
				<path class="st63" d="M228.1,756.4c-0.9,1,0.3,1.9,2.7,2.2c0.1,0,0.3,0,0.4,0c-1.8-0.3-2.7-1.2-1.8-2c0.9-0.9,3.3-1.5,5.6-1.4
					c-0.3-0.1-0.6-0.1-0.9-0.1C231.7,754.8,229,755.4,228.1,756.4z"/>
				<path class="st63" d="M228.5,756.5c-0.9,1,0.3,1.9,2.7,2.2c0.1,0,0.3,0,0.4,0c-1.8-0.3-2.7-1.2-1.8-2c0.9-0.9,3.3-1.5,5.6-1.4
					c-0.3-0.1-0.6-0.1-0.9-0.1C232.1,754.9,229.4,755.5,228.5,756.5z"/>
				<g>
					
						<ellipse transform="matrix(0.9975 -7.009335e-02 7.009335e-02 0.9975 -52.4828 18.2323)" class="st63" cx="233.6" cy="757" rx="2.1" ry="0.8"/>
				</g>
				<g>
					
						<ellipse transform="matrix(0.9975 -7.009335e-02 7.009335e-02 0.9975 -52.4806 18.2034)" class="st63" cx="233.1" cy="756.9" rx="2.1" ry="0.8"/>
				</g>
				<path class="st64" d="M229.2,754.3c0,0-8.2,2.2-2.4,5"/>
			</g>
			<g>
				<g>
					
						<ellipse transform="matrix(0.9933 -0.1153 0.1153 0.9933 -85.7313 29.7242)" class="st63" cx="214" cy="755.7" rx="8.1" ry="3.2"/>
				</g>
				<g>
					<path class="st63" d="M206.8,755c-2,1.8-0.3,3.5,3.6,3.9c2.3,0.2,5-0.1,7.1-0.7c-2.1,0.6-4.5,0.8-6.7,0.6
						c-4-0.4-5.6-2.1-3.6-3.9c0.8-0.7,2-1.3,3.4-1.7C209.1,753.5,207.7,754.2,206.8,755z"/>
				</g>
				<g>
					
						<ellipse transform="matrix(0.9933 -0.1153 0.1153 0.9933 -85.7484 30.1163)" class="st63" cx="217.4" cy="756" rx="2" ry="0.8"/>
				</g>
				<g>
					
						<ellipse transform="matrix(0.9933 -0.1153 0.1153 0.9933 -85.7333 29.9313)" class="st63" cx="215.8" cy="755.8" rx="3.8" ry="1.5"/>
				</g>
				<g>
					<ellipse transform="matrix(0.9933 -0.1153 0.1153 0.9933 -85.7454 30.0745)" class="st63" cx="217" cy="756" rx="2" ry="0.8"/>
				</g>
				<path class="st64" d="M214,753.5c0,0-7.9,2.1-3.3,4.9"/>
			</g>
		</g>
		<path class="st63" d="M277.4,789.4c0,0-1.6-0.2-4.2-0.4c-5.7-0.5-16.3-1.4-26.8-2.1c-23.7-1.9-40.2-4.7-51.1-7.3c0,0,0,0-0.1,0
			c-14.8-3.8-15.9-6.4-16-6.9c4.6-2.3,16.2-7.6,30.3-10c2-0.3,4.1-0.6,6.3-0.8c2.4,0.1,19.7,1.3,35.9,5.1c0,0,0,0,0,0
			c14.1,3.4,28.2,8,39.7,12c1.2,0.4,2.5,0.8,3.6,1.3c0.1,0.1,0.1,0.1,0.2,0.2C302.6,788.8,277.4,789.4,277.4,789.4z"/>
		<path class="st63" d="M907.9,805.3l-158.6,4.3c0,0-7.5-2.1-24.7-3.5c-7.2-2.9-10-4.6-10-4.6l176.2,0.6l5.6,1.1L907.9,805.3z"/>
		<path class="st63" d="M559.7,768.1c0,0-2.5,2.1-6.7,3.1"/>
		<path class="st63" d="M982.5,762.2l-1.7-0.5l-1.6-2.3l-101.8,4.1l-7.3-0.9c0,0-200.4,4.6-223.2,5c-22.8,0.4-27,1.2-28.4,2.7
			c4.1-0.5,8.4-0.8,13.9-1.1c0.9-0.1,1.9-0.1,2.9-0.1c6.5-0.3,14.8-0.6,26.1-0.8c5.4-0.1,19.6-0.4,38.2-0.8c2.5-0.1,5-0.1,7.6-0.2
			c34.1-0.8,79.7-1.8,114-2.6c3-0.1,6-0.1,8.8-0.2c23.8-0.5,40.4-0.9,40.4-0.9l8.8,4.3c0,0-16.7,0.5-40.7,1.2c-2,0.1-4,0.1-6,0.2
			c-33.7,1-79.3,2.4-113.8,3.6c-0.3,0-0.6,0-0.9,0c-17.9,0.6-32.8,1.2-41.3,1.7c-8.6,0.5-16.3,0.9-23.2,1.4l-0.9,0.1
			c-0.8,0-1.5,0.1-2.3,0.1c-21.6,1.4-33.3,2.3-33.3,2.3l-10.3,0.7l-98-13l-50.3-6.7c4-0.6,8.9-1,14.6-1.2c3,0,6.2,0,9.7,0
			c24.7,0,61.1,0.1,103.6,0.1c115.1-0.1,274.5-0.7,364-3.1c0.3,0,0.5,0,0.8,0c17.5,0.1,31.1,0.9,31.6,3.5
			C983.2,761.4,982.5,762.2,982.5,762.2z"/>
		<polygon class="st63" points="606.3,774.6 618.7,779.5 618.1,783.8 600,779.6 		"/>
		<polygon class="st63" points="618.7,779.5 618.5,781.2 602.6,777.5 606.3,774.6 		"/>
		<g>
			<rect x="556" y="789.6" class="st63" width="3" height="5.4"/>
			<rect x="549.4" y="789.9" class="st63" width="3.2" height="5.4"/>
			<rect x="551.2" y="789.9" class="st63" width="1.4" height="5.4"/>
			<g>
				<g>
					<ellipse class="st63" cx="566.8" cy="795" rx="12.7" ry="5.1"/>
				</g>
				<g>
					<path class="st63" d="M554.1,794.7c-0.4,2.8,5,5.2,12,5.4c4.1,0.1,7.9-0.6,10.4-1.8c-2.5,1-6,1.7-9.8,1.6
						c-7-0.2-12.3-2.6-12-5.4c0.1-1.1,1.2-2.1,2.8-2.9C555.6,792.3,554.3,793.5,554.1,794.7z"/>
				</g>
				<g>
					<ellipse class="st63" cx="571.6" cy="795" rx="6.8" ry="2.7"/>
				</g>
				<path class="st63" d="M570,797.7c0.4,0,0.8,0.1,1.2,0.1c3.8,0.1,7-1.1,7.2-2.6c0.2-1.5-2.7-2.8-6.5-2.9c0,0-0.1,0-0.1,0
					c3.1,0.3,5.4,1.5,5.2,2.8C576.9,796.6,573.7,797.8,570,797.7z"/>
				<path class="st63" d="M564.2,794.8c-0.2,1.5,2.7,2.8,6.5,2.9c0.2,0,0.4,0,0.6,0c-3.1-0.3-5.2-1.5-5.1-2.8
					c0.2-1.4,3.1-2.5,6.6-2.6c-0.4-0.1-0.9-0.1-1.4-0.1C567.6,792.2,564.4,793.3,564.2,794.8z"/>
				<path class="st63" d="M564.8,794.9c-0.2,1.5,2.7,2.8,6.5,2.9c0.2,0,0.4,0,0.6,0c-3.1-0.3-5.2-1.5-5.1-2.8
					c0.2-1.4,3.1-2.5,6.6-2.6c-0.4-0.1-0.9-0.1-1.4-0.1C568.2,792.2,565,793.4,564.8,794.9z"/>
				<g>
					<ellipse class="st63" cx="572.8" cy="795.1" rx="3.1" ry="1.3"/>
				</g>
				<g>
					<ellipse class="st63" cx="572.1" cy="795.1" rx="3.1" ry="1.3"/>
				</g>
				<path class="st64" d="M563.4,791.7c0,0-9.4,4,2.3,7.6"/>
			</g>
			<g>
				<g>
					
						<ellipse transform="matrix(0.9997 -2.441162e-02 2.441162e-02 0.9997 -19.2596 13.4367)" class="st63" cx="540.7" cy="795.6" rx="11.9" ry="5"/>
				</g>
				<g>
					<path class="st63" d="M528.9,795.2c-0.7,2.8,4,5.1,10.5,5.3c3.8,0.1,7.5-0.6,9.9-1.7c-2.4,1-5.8,1.6-9.4,1.5
						c-6.5-0.2-11.2-2.5-10.5-5.3c0.3-1.1,1.4-2.1,3-2.9C530.6,793,529.2,794,528.9,795.2z"/>
				</g>
				<g>
					
						<ellipse transform="matrix(0.9997 -2.441162e-02 2.441162e-02 0.9997 -19.262 13.5724)" class="st63" cx="546.3" cy="795.7" rx="2.9" ry="1.2"/>
				</g>
				<g>
					
						<ellipse transform="matrix(0.9997 -2.441162e-02 2.441162e-02 0.9997 -19.2587 13.5066)" class="st63" cx="543.6" cy="795.6" rx="5.6" ry="2.3"/>
				</g>
				<g>
					
						<ellipse transform="matrix(0.9997 -2.441162e-02 2.441162e-02 0.9997 -19.2614 13.5576)" class="st63" cx="545.7" cy="795.7" rx="2.9" ry="1.2"/>
				</g>
			</g>
			<polygon class="st63" points="509.8,772.2 530.4,785.3 580.6,780.5 			"/>
			<polygon class="st63" points="559,790.2 549.4,790.3 549.3,788.3 558.9,788.3 			"/>
			<path class="st63" d="M560.6,786.9c-1.8,0.8-1.6,1.6-1.6,1.6s-1.7,0.2-4.1,0.1c-1.1,0-2.4-0.1-3.7-0.3c0.8-1.5-2-4.6-2-4.6
				l-20.9-7.6l20.8,1.9l12.7,1.1C561.7,779.2,562.4,786.1,560.6,786.9z"/>
			<path class="st63" d="M560.6,786.9c-1.8,0.8-1.6,1.6-1.6,1.6s-1.7,0.2-4.1,0.1c0-0.6,0.2-1.3,0.8-1.8c1.5-1.3-1.2-4.1-3.4-5.1
				c-1.6-0.7-2.8-2.7-3.3-3.7l12.7,1.1C561.7,779.2,562.4,786.1,560.6,786.9z"/>
		</g>
		<path class="st63" d="M572.1,780.4l16.7,1.5c0,0,21.3-0.7,17.6-8.3c-7.9-1.5-11.8-2.5-11.8-2.5L572.1,780.4z"/>
		<path class="st63" d="M589.6,778.3L589.6,778.3c-7.4,2.2-17.4,2.4-17.4,2.4c-26.5-1.5-47-4.7-61-7.6c-7.8-1.6-13.6-3.1-17.4-4.2
			l0,0c-3-1.1-4.5-1.8-4.9-2.1c0,0,0,0,0,0c0,0,0-0.1,0.1-0.1c0-0.1,0.1-0.1,0.1-0.2c0,0,0.1-0.1,0.1-0.1c0,0,0.1-0.1,0.1-0.1
			c0-0.1,0.1-0.1,0.1-0.2c0,0,0,0,0,0c0,0,0.1-0.1,0.1-0.2c0-0.1,0.1-0.1,0.1-0.2c0,0,0,0,0,0c0.1-0.1,0.2-0.3,0.4-0.4
			c0.1-0.1,0.2-0.2,0.3-0.3c0,0,0.1,0,0.1-0.1c0.1-0.1,0.1-0.1,0.2-0.2c0,0,0.1-0.1,0.1-0.1v0c0.1-0.1,0.2-0.2,0.3-0.2
			c0.4-0.4,0.9-0.8,1.5-1.3c0,0,0,0,0,0c0.1-0.1,0.2-0.2,0.3-0.2c0.1-0.1,0.2-0.1,0.2-0.2c0.2-0.1,0.4-0.3,0.6-0.4
			c0.2-0.1,0.4-0.3,0.7-0.4c0.2-0.1,0.5-0.3,0.7-0.4c0.1-0.1,0.3-0.2,0.4-0.2c0.2-0.1,0.4-0.2,0.6-0.4c0.2-0.1,0.4-0.2,0.7-0.4
			c0,0,0,0,0,0c0.3-0.1,0.6-0.3,0.8-0.4c0.2-0.1,0.3-0.2,0.5-0.2c0.2-0.1,0.3-0.2,0.5-0.2c0.5-0.2,1-0.5,1.6-0.7
			c0.2-0.1,0.4-0.2,0.6-0.3c0.6-0.2,1.2-0.5,1.8-0.7c0.1,0,0.2-0.1,0.2-0.1c0.2-0.1,0.4-0.1,0.6-0.2c0.2-0.1,0.4-0.1,0.6-0.2
			c0.2-0.1,0.4-0.1,0.6-0.2c4.4-1.5,10-2.8,17.1-3.6c1.7,0.1,13.1,0.7,38.7,5.5c13.4,2.9,26.6,6.6,36.2,11
			C598.9,774.2,594.9,776.7,589.6,778.3z"/>
		<path class="st65" d="M594.1,776.5c-1.3,0.7-2.8,1.3-4.5,1.8c-7.4,2.2-17.4,2.4-17.4,2.4c-41.3-2.3-67.9-8.7-78.4-11.8
			c-3.1-1.1-4.5-1.8-4.9-2.1c0,0,0,0,0,0c0,0,0-0.1,0.1-0.1c0-0.1,0.1-0.1,0.1-0.2c0,0,0.1-0.1,0.1-0.1c0-0.1,0.1-0.1,0.1-0.2
			c0,0,0.1-0.1,0.1-0.1c0.2-0.2,0.3-0.4,0.6-0.6c0-0.1,0.1-0.1,0.2-0.2c0.1-0.2,0.3-0.3,0.5-0.5c0.1-0.1,0.1-0.1,0.2-0.2
			c1-0.9,2.4-2.1,4.3-3.2c0.1-0.1,0.3-0.2,0.4-0.2c0.4-0.2,0.8-0.5,1.3-0.7c0.3-0.1,0.6-0.3,0.8-0.4c0.2-0.1,0.3-0.2,0.5-0.2
			c0.2-0.1,0.3-0.2,0.5-0.2c0.2-0.1,0.3-0.2,0.5-0.2c0.3-0.2,0.7-0.3,1.1-0.5c0.2-0.1,0.4-0.2,0.6-0.3c0.7-0.3,1.4-0.5,2.1-0.8
			c0,0,0,0,0,0c-0.1,0.1-0.2,0.1-0.3,0.2c-3,2.3-3.8,4.1-3.8,4.1S540,773.3,594.1,776.5z"/>
		<path class="st65" d="M589.8,778.3c-7.4,2.2-17.6,2.4-17.6,2.4c-26.5-1.5-47-4.7-61-7.6c-7.8-1.6-13.6-3.1-17.3-4.2c0,0,0,0-0.1,0
			l0,0c-3-1.1-4.5-1.8-4.9-2.1c0,0,0,0,0,0c0,0,0-0.1,0.1-0.1c0-0.1,0.1-0.1,0.1-0.2c0,0,0.1-0.1,0.1-0.1c0,0,0.1-0.1,0.1-0.1
			c0,0,0,0,0.1-0.1c0,0,0-0.1,0.1-0.1c0,0,0,0,0,0c0,0,0.1-0.1,0.1-0.2c0-0.1,0.1-0.1,0.1-0.2c0,0,0,0,0,0c0.1-0.1,0.2-0.2,0.3-0.3
			c0,0,0-0.1,0.1-0.1c0,0,0.1-0.1,0.1-0.1c0.1-0.1,0.1-0.2,0.2-0.2c0,0,0.1,0,0.1-0.1c0.1-0.1,0.1-0.1,0.2-0.2c0,0,0,0,0-0.1
			c0,0,0.1-0.1,0.1-0.1v0c0.1-0.1,0.2-0.2,0.3-0.2c0.4-0.4,0.9-0.8,1.5-1.3c0,0,0,0,0,0c0.1-0.1,0.2-0.2,0.3-0.2
			c0.1-0.1,0.2-0.1,0.2-0.2c0.2-0.1,0.4-0.3,0.6-0.4c0.2-0.1,0.4-0.3,0.7-0.4c0.2-0.1,0.5-0.3,0.7-0.4c0.1-0.1,0.3-0.2,0.4-0.2
			c0.2-0.1,0.4-0.2,0.6-0.4c0.2-0.1,0.4-0.2,0.7-0.4c0,0,0,0,0,0c0.3-0.1,0.6-0.3,0.8-0.4c0.2-0.1,0.3-0.2,0.5-0.2
			c0.2-0.1,0.3-0.2,0.5-0.2c0.2-0.1,0.3-0.2,0.5-0.2c0.3-0.2,0.7-0.3,1.1-0.5c0.2-0.1,0.4-0.2,0.6-0.3c0.7-0.3,1.4-0.5,2.1-0.8
			c0.2-0.1,0.4-0.1,0.6-0.2c0.2-0.1,0.4-0.1,0.6-0.2c0.2-0.1,0.4-0.1,0.6-0.2c1-0.3,2.1-0.7,3.3-1c-2,0.6-3.8,1.2-5.3,1.8
			c-10.7,4.2-13,9.1-13,9.1s28.8,10.2,83.6,13.4c0,0,9.1-0.2,16.4-2.1l0,0C589.7,778.3,589.8,778.3,589.8,778.3z"/>
		<path class="st63" d="M718.7,772.9c-0.3,0-0.6,0-0.9,0c-12.2-0.9-22-4.9-22-4.9l3.8-0.6c2.5-0.1,5-0.1,7.6-0.2
			C710.5,768.4,716.7,770.6,718.7,772.9z"/>
		<path class="st63" d="M838.5,769.1c-2,0.1-4,0.1-6,0.2c-6.3-0.7-10.4-2.3-10.4-2.4c0-0.1-0.6-1.6-0.8-2.2c3-0.1,6-0.1,8.8-0.2
			C832.1,765.5,836.9,767.7,838.5,769.1z"/>
		<path class="st63" d="M722.4,777.3c-0.1,0.2-0.5,0.4-1.1,0.5c-0.7,0.1-1.5,0.1-2.2,0c-13.3-2.7-38.8-12.4-45.4-14.9
			c-0.3-0.1-0.2-0.2,0.1-0.3c0.2-0.1,0.5-0.1,0.8,0C703.7,765.5,723.8,772.9,722.4,777.3z"/>
		<path class="st63" d="M839.7,773C839.7,773.1,839.7,773.1,839.7,773c-0.1,0.3-0.8,0.4-1.4,0.3c-15.7-2-33-10.5-37.5-12.8
			c-0.4-0.2,0.3-0.5,1.1-0.4c0.6,0.1,1.1,0.1,1.7,0.2c0,0,0,0,0,0C822.3,762.4,842.1,768.3,839.7,773z"/>
		<path class="st63" d="M951,755.3c0,0.5-0.1,1-0.3,1.3c-90.3,3-370.2,4.1-370.2,4.1l5.6-2.3c115.1-0.1,274.5-0.7,364-3.1
			C950.5,755.3,950.8,755.3,951,755.3z"/>
		<path class="st63" d="M189.3,779.7c-15.3,0.7-19.2,1.5-19.2,1.5l-67,1.1l-1.9,4.1c0,0-0.8-0.1-2.3-0.1c-0.3-1.8-5-4-8.6-5.4
			C104.1,780.7,174.8,779.4,189.3,779.7z"/>
		<path class="st63" d="M311.8,747.7l-3.9-1c-1.5-0.4-1.6-1.1-0.3-1.5l7.5-2.3c1.4-0.4,3.8-0.5,5.3-0.1l3.9,1
			c1.5,0.4,1.6,1.1,0.3,1.5l-7.5,2.3C315.7,748,313.3,748.1,311.8,747.7z"/>
		<ellipse class="st63" cx="315.8" cy="745.2" rx="3.9" ry="1.1"/>
		<path class="st63" d="M680.2,790.6c2.7,1.8,7.2,6.3-4,10.8c-0.3,0.1-0.2,0.2,0.1,0.3c4,1.3,7.1,2.2,8.3,2.6c0.4,0.1,1,0.1,1.4,0
			c2.7-0.8,13.6-4,7.6-11.5c0-0.1-9.7-2.1-12-2.6C680.8,790.2,679.8,790.4,680.2,790.6z"/>
		<path class="st63" d="M295.8,716.8c3.3,2.4,7,6.7,2,11.1c-0.4,0.4,0,0.8,1.1,1c6,1.2,10.6,2,13.6,2.5c1.9,0.3,4.3,0,4.6-0.6
			c1.2-2.5,2.9-8.3-5-13.1c-0.3-0.2-0.8-0.3-1.4-0.4c-4-0.6-7.7-1.1-10.6-1.5C297.6,715.3,294.8,716,295.8,716.8z"/>
		<path class="st63" d="M317.1,730.7c-0.3,0.6-2.7,0.9-4.6,0.6c-3-0.5-7.6-1.3-13.6-2.5c-1.1-0.2-1.5-0.6-1.1-1
			c5-4.4,1.3-8.6-2-11.1c-0.4-0.3-0.2-0.5,0.2-0.8c-0.1,0.1,0,0.3,0.2,0.4c3.3,2.4,7,6.7,2,11.1c-0.4,0.4,0,0.8,1.1,1
			c6,1.2,10.6,2,13.6,2.5C314.4,731.2,316.3,731.1,317.1,730.7z"/>
		<line class="st63" x1="345.1" y1="737.7" x2="372.5" y2="743"/>
		<path class="st63" d="M721.3,777.8c-0.7,0.1-1.5,0.1-2.2,0c-13.3-2.7-38.8-12.4-45.4-14.9c-0.3-0.1-0.2-0.2,0.1-0.3
			C677,763.3,702.4,769.5,721.3,777.8z"/>
		<path class="st63" d="M839.7,773C839.7,773.1,839.7,773.1,839.7,773c-0.1,0.3-0.8,0.4-1.4,0.3c-15.7-2-33-10.5-37.5-12.8
			c-0.4-0.2,0.3-0.5,1.1-0.4c0.6,0.1,1.1,0.1,1.7,0.2c0,0,0,0,0,0C810.3,762.3,832.8,769.2,839.7,773z"/>
		<path class="st63" d="M653.3,776l-0.9,0.1l-2.3,0.1l-17.7-7c0.9-0.1,1.9-0.1,2.9-0.1L653.3,776z"/>
		
			<ellipse transform="matrix(0.9998 -2.223157e-02 2.223157e-02 0.9998 -16.7994 11.5292)" class="st63" cx="510.1" cy="761.3" rx="26.4" ry="8.5"/>
		
			<ellipse transform="matrix(0.9994 -3.435295e-02 3.435295e-02 0.9994 -25.8315 17.9095)" class="st63" cx="508.3" cy="760.7" rx="20.3" ry="6.8"/>
		
			<ellipse transform="matrix(0.9994 -3.435295e-02 3.435295e-02 0.9994 -25.8242 17.9464)" class="st63" cx="509.3" cy="760.5" rx="20.2" ry="6.8"/>
		<path class="st64" d="M520,766c-4.6,1.1-10.4,1.6-16.1,1.3c-10.7-0.7-17-4.3-14-8c2-2.5,7.7-4.4,14.4-5.2c-4.1,1-7.4,2.5-8.8,4.2
			c-3,3.7,3.3,7.3,14,8C513.1,766.5,516.7,766.3,520,766z"/>
		<g>
			<path class="st63" d="M559.3,767.4c-0.8,1-2.5,2.4-5.6,3.4l-1.9-0.8c3.1-1.2,4.5-2.9,4.9-3.5L559.3,767.4z"/>
		</g>
		<g>
			<path class="st63" d="M252,775.5c-0.8,1-2.5,2.4-5.6,3.4l-1.9-0.8c3.1-1.2,4.5-2.9,4.9-3.5L252,775.5z"/>
		</g>
		<path class="st63" d="M540.5,763.6l-0.4,0.3l-2.1,1.6l-4.4-0.7c-5.5,3.6-18,5.7-30.1,4.9c-10.5-0.7-17.9-3.3-19.4-6.6
			c2.6,2.7,9.4,4.8,18.6,5.3c14.1,0.9,28.5-2.1,32.2-6.7c0.9-1.2,1.1-2.3,0.6-3.4c1.3,1.3,1.5,2.7,0.6,4.2L540.5,763.6z"/>
		<polygon class="st64" points="540.5,763.6 540.1,763.9 535.8,762.8 535.9,762.5 		"/>
		<path class="st63" d="M896.3,803.1l-171.8,3c-7.2-2.9-10-4.6-10-4.6l176.2,0.6L896.3,803.1z"/>
		<g>
			<path class="st63" d="M232.8,709.7l-0.6,0.6l-1.7,1.7l-0.5,0.4c-1.2-0.1-2.3-0.1-3.5-0.1c-1.4,0-2.9-0.1-4.3-0.1
				c-2.7-0.1-5.4-0.1-8-0.2c-9.7-0.2-17.1-0.3-17.1-0.4c0-0.1,7-1.7,8.6-2.1c0.2-0.1,0.4-0.1,0.4-0.1s2.8,0,6.9,0.1
				c2.7,0,5.9,0.1,9.3,0.1c2.6,0,5.2,0.1,7.7,0.1C231,709.6,231.9,709.6,232.8,709.7z"/>
			<path class="st63" d="M255.2,714.9c-1.2-0.2-2.4-0.3-3.6-0.5c-1.4-0.2-2.9-0.4-4.4-0.5l0,0c-1.4-0.2-2.9-0.3-4.3-0.5h0
				c-3.4-0.4-6.9-0.7-10.3-0.9l1.7-1.6l0.6-0.6l0.6-0.6c0,0,0.1,0,0.1,0c3.3,0.1,6,0.2,7.4,0.3c1.7,0.1,3.8,0.3,6.2,0.6
				c1.3,0.2,2.7,0.3,4.1,0.6l0.4,0.8L255.2,714.9z"/>
			<path class="st63" d="M270.3,716.9c-3.4-0.4-7.6-1-12.3-1.6l-1.1-2.5l-0.4-0.9l-0.1-0.3c3.8,0.8,7.7,1.9,11,3.5
				c0.9,0.5,1.8,0.9,2.6,1.5C270.1,716.7,270.2,716.8,270.3,716.9z"/>
		</g>
		<g>
			<g>
				<path class="st63" d="M339.3,729c0.1,0.3-0.7,0.6-1.9,0.6c-1.1,0-2.1-0.2-2.2-0.5l-0.5-2c0,0,0-0.1,0-0.1
					c0.2-0.2,0.9-0.4,1.8-0.5l0,0c1.1,0,2.1,0.2,2.1,0.5l0.2,0.7L339.3,729z"/>
				<path class="st63" d="M339,727.8l-4.2-0.7c0.2-0.2,0.9-0.4,1.8-0.5l0,0c1.1,0,2.1,0.2,2.1,0.5L339,727.8z"/>
			</g>
			<g>
				<path class="st63" d="M349.2,731c0.1,0.3-0.7,0.6-1.9,0.6c-1.1,0-2.1-0.2-2.2-0.5l-0.5-2c0,0,0-0.1,0-0.1
					c0.2-0.2,0.9-0.4,1.8-0.5l0,0c1.1,0,2.1,0.2,2.1,0.5l0.2,0.7L349.2,731z"/>
				<path class="st63" d="M348.8,729.7l-4.2-0.7c0.2-0.2,0.9-0.4,1.8-0.5l0,0c1.1,0,2.1,0.2,2.1,0.5L348.8,729.7z"/>
			</g>
			<g>
				<path class="st63" d="M359,732.9c0.1,0.3-0.7,0.6-1.9,0.6c-1.1,0-2.1-0.2-2.2-0.5l-0.5-2c0,0,0-0.1,0-0.1
					c0.2-0.2,0.9-0.4,1.8-0.5l0,0c1.1,0,2.1,0.2,2.1,0.5l0.2,0.7L359,732.9z"/>
				<path class="st63" d="M358.7,731.6l-4.2-0.7c0.2-0.2,0.9-0.4,1.8-0.5l0,0c1.1,0,2.1,0.2,2.1,0.5L358.7,731.6z"/>
			</g>
			<g>
				<path class="st63" d="M368.8,734.8c0.1,0.3-0.7,0.6-1.9,0.6c-1.1,0-2.1-0.2-2.2-0.5l-0.5-2c0,0,0-0.1,0-0.1
					c0.2-0.2,0.9-0.4,1.8-0.5l0,0c1.1,0,2.1,0.2,2.1,0.5l0.2,0.7L368.8,734.8z"/>
				<path class="st63" d="M368.5,733.5l-4.2-0.7c0.2-0.2,0.9-0.4,1.8-0.5l0,0c1.1,0,2.1,0.2,2.1,0.5L368.5,733.5z"/>
			</g>
			<g>
				<path class="st63" d="M378.7,736.7c0.1,0.3-0.7,0.6-1.9,0.6c-1.1,0-2.1-0.2-2.2-0.5l-0.5-2c0,0,0-0.1,0-0.1
					c0.2-0.2,0.9-0.4,1.8-0.5l0,0c1.1,0,2.1,0.2,2.1,0.5l0.2,0.7L378.7,736.7z"/>
				<path class="st63" d="M378.3,735.5l-4.2-0.7c0.2-0.2,0.9-0.4,1.8-0.5l0,0c1.1,0,2.1,0.2,2.1,0.5L378.3,735.5z"/>
			</g>
			<g>
				<path class="st63" d="M388.5,738.7c0.1,0.3-0.7,0.6-1.9,0.6c-1.1,0-2.1-0.2-2.2-0.5l-0.5-2c0,0,0-0.1,0-0.1
					c0.2-0.2,0.9-0.4,1.8-0.5l0,0c1.1,0,2.1,0.2,2.1,0.5l0.2,0.7L388.5,738.7z"/>
				<path class="st63" d="M388.2,737.4l-4.2-0.7c0.2-0.2,0.9-0.4,1.8-0.5l0,0c1.1,0,2.1,0.2,2.1,0.5L388.2,737.4z"/>
			</g>
			<g>
				<path class="st63" d="M398.4,740.6c0.1,0.3-0.7,0.6-1.9,0.6c-1.1,0-2.1-0.2-2.2-0.5l-0.5-2c0,0,0-0.1,0-0.1
					c0.2-0.2,0.9-0.4,1.8-0.5l0,0c1.1,0,2.1,0.2,2.1,0.5l0.2,0.7L398.4,740.6z"/>
				<path class="st63" d="M398,739.3l-4.2-0.7c0.2-0.2,0.9-0.4,1.8-0.5l0,0c1.1,0,2.1,0.2,2.1,0.5L398,739.3z"/>
			</g>
			<g>
				<path class="st63" d="M408.2,742.5c0.1,0.3-0.7,0.6-1.9,0.6c-1.1,0-2.1-0.2-2.2-0.5l-0.5-2c0,0,0-0.1,0-0.1
					c0.2-0.2,0.9-0.4,1.8-0.5l0,0c1.1,0,2.1,0.2,2.1,0.5l0.2,0.7L408.2,742.5z"/>
				<path class="st63" d="M407.8,741.2l-4.2-0.7c0.2-0.2,0.9-0.4,1.8-0.5l0,0c1.1,0,2.1,0.2,2.1,0.5L407.8,741.2z"/>
			</g>
			<g>
				<path class="st63" d="M418,744.4c0.1,0.3-0.7,0.6-1.9,0.6c-1.1,0-2.1-0.2-2.2-0.5l-0.5-2c0,0,0-0.1,0-0.1
					c0.2-0.2,0.9-0.4,1.8-0.5l0,0c1.1,0,2.1,0.2,2.1,0.5l0.2,0.7L418,744.4z"/>
				<path class="st63" d="M417.7,743.1l-4.2-0.7c0.2-0.2,0.9-0.4,1.8-0.5l0,0c1.1,0,2.1,0.2,2.1,0.5L417.7,743.1z"/>
			</g>
			<g>
				<path class="st63" d="M427.9,746.3c0.1,0.3-0.7,0.6-1.9,0.6c-1.1,0-2.1-0.2-2.2-0.5l-0.5-2c0,0,0-0.1,0-0.1
					c0.2-0.2,0.9-0.4,1.8-0.5l0,0c1.1,0,2.1,0.2,2.1,0.5l0.2,0.7L427.9,746.3z"/>
				<path class="st63" d="M427.5,745.1l-4.2-0.7c0.2-0.2,0.9-0.4,1.8-0.5l0,0c1.1,0,2.1,0.2,2.1,0.5L427.5,745.1z"/>
			</g>
			<g>
				<path class="st63" d="M437.7,748.3c0.1,0.3-0.7,0.6-1.9,0.6c-1.1,0-2.1-0.2-2.2-0.5l-0.5-2c0,0,0-0.1,0-0.1
					c0.2-0.2,0.9-0.4,1.8-0.5l0,0c1.1,0,2.1,0.2,2.1,0.5l0.2,0.7L437.7,748.3z"/>
				<path class="st63" d="M437.4,747l-4.2-0.7c0.2-0.2,0.9-0.4,1.8-0.5l0,0c1.1,0,2.1,0.2,2.1,0.5L437.4,747z"/>
			</g>
			<g>
				<path class="st63" d="M447.6,750.2c0.1,0.3-0.7,0.6-1.9,0.6c-1.1,0-2.1-0.2-2.2-0.5l-0.5-2c0,0,0-0.1,0-0.1
					c0.2-0.2,0.9-0.4,1.8-0.5l0,0c1.1,0,2.1,0.2,2.1,0.5l0.2,0.7L447.6,750.2z"/>
				<path class="st63" d="M447.2,748.9l-4.2-0.7c0.2-0.2,0.9-0.4,1.8-0.5l0,0c1.1,0,2.1,0.2,2.1,0.5L447.2,748.9z"/>
			</g>
			<g>
				<path class="st63" d="M457.4,752.1c0.1,0.3-0.7,0.6-1.9,0.6c-1.1,0-2.1-0.2-2.2-0.5l-0.5-2c0,0,0-0.1,0-0.1
					c0.2-0.2,0.9-0.4,1.8-0.5l0,0c1.1,0,2.1,0.2,2.1,0.5l0.2,0.7L457.4,752.1z"/>
				<path class="st63" d="M457,750.8l-4.2-0.7c0.2-0.2,0.9-0.4,1.8-0.5l0,0c1.1,0,2.1,0.2,2.1,0.5L457,750.8z"/>
			</g>
			<g>
				<path class="st63" d="M467.2,754c0.1,0.3-0.7,0.6-1.9,0.6c-1.1,0-2.1-0.2-2.2-0.5l-0.5-2c0,0,0-0.1,0-0.1
					c0.2-0.2,0.9-0.4,1.8-0.5l0,0c1.1,0,2.1,0.2,2.1,0.5l0.2,0.7L467.2,754z"/>
				<path class="st63" d="M466.9,752.8l-4.2-0.7c0.2-0.2,0.9-0.4,1.8-0.5l0,0c1.1,0,2.1,0.2,2.1,0.5L466.9,752.8z"/>
			</g>
			<g>
				<path class="st63" d="M477.1,756c0.1,0.3-0.7,0.6-1.9,0.6c-1.1,0-2.1-0.2-2.2-0.5l-0.5-2c0,0,0-0.1,0-0.1
					c0.2-0.2,0.9-0.4,1.8-0.5l0,0c1.1,0,2.1,0.2,2.1,0.5l0.2,0.7L477.1,756z"/>
				<path class="st63" d="M476.7,754.7l-4.2-0.7c0.2-0.2,0.9-0.4,1.8-0.5l0,0c1.1,0,2.1,0.2,2.1,0.5L476.7,754.7z"/>
			</g>
			<g>
				<path class="st63" d="M624.6,784.8c0.1,0.3-0.7,0.6-1.9,0.6c-1.1,0-2.1-0.2-2.2-0.5l-0.5-2c0,0,0-0.1,0-0.1
					c0.2-0.2,0.9-0.4,1.8-0.5l0,0c1.1,0,2.1,0.2,2.1,0.5l0.2,0.7L624.6,784.8z"/>
				<path class="st63" d="M624.3,783.5l-4.2-0.7c0.2-0.2,0.9-0.4,1.8-0.5l0,0c1.1,0,2.1,0.2,2.1,0.5L624.3,783.5z"/>
			</g>
			<g>
				<path class="st63" d="M634.5,786.7c0.1,0.3-0.7,0.6-1.9,0.6c-1.1,0-2.1-0.2-2.2-0.5l-0.5-2c0,0,0-0.1,0-0.1
					c0.2-0.2,0.9-0.4,1.8-0.5l0,0c1.1,0,2.1,0.2,2.1,0.5l0.2,0.7L634.5,786.7z"/>
				<path class="st63" d="M634.1,785.4l-4.2-0.7c0.2-0.2,0.9-0.4,1.8-0.5l0,0c1.1,0,2.1,0.2,2.1,0.5L634.1,785.4z"/>
			</g>
			<g>
				<path class="st63" d="M644.3,788.6c0.1,0.3-0.7,0.6-1.9,0.6c-1.1,0-2.1-0.2-2.2-0.5l-0.5-2c0,0,0-0.1,0-0.1
					c0.2-0.2,0.9-0.4,1.8-0.5l0,0c1.1,0,2.1,0.2,2.1,0.5l0.2,0.7L644.3,788.6z"/>
				<path class="st63" d="M644,787.4l-4.2-0.7c0.2-0.2,0.9-0.4,1.8-0.5l0,0c1.1,0,2.1,0.2,2.1,0.5L644,787.4z"/>
			</g>
			<g>
				<path class="st63" d="M654.1,790.6c0.1,0.3-0.7,0.6-1.9,0.6c-1.1,0-2.1-0.2-2.2-0.5l-0.5-2c0,0,0-0.1,0-0.1
					c0.2-0.2,0.9-0.4,1.8-0.5l0,0c1.1,0,2.1,0.2,2.1,0.5l0.2,0.7L654.1,790.6z"/>
				<path class="st63" d="M653.8,789.3l-4.2-0.7c0.2-0.2,0.9-0.4,1.8-0.5l0,0c1.1,0,2.1,0.2,2.1,0.5L653.8,789.3z"/>
			</g>
			<g>
				<path class="st63" d="M664,792.5c0.1,0.3-0.7,0.6-1.9,0.6c-1.1,0-2.1-0.2-2.2-0.5l-0.5-2c0,0,0-0.1,0-0.1
					c0.2-0.2,0.9-0.4,1.8-0.5l0,0c1.1,0,2.1,0.2,2.1,0.5l0.2,0.7L664,792.5z"/>
				<path class="st63" d="M663.6,791.2l-4.2-0.7c0.2-0.2,0.9-0.4,1.8-0.5l0,0c1.1,0,2.1,0.2,2.1,0.5L663.6,791.2z"/>
			</g>
			<g>
				<path class="st63" d="M673.8,794.4c0.1,0.3-0.7,0.6-1.9,0.6c-1.1,0-2.1-0.2-2.2-0.5l-0.5-2c0,0,0-0.1,0-0.1
					c0.2-0.2,0.9-0.4,1.8-0.5l0,0c1.1,0,2.1,0.2,2.1,0.5l0.2,0.7L673.8,794.4z"/>
				<path class="st63" d="M673.5,793.1l-4.2-0.7c0.2-0.2,0.9-0.4,1.8-0.5l0,0c1.1,0,2.1,0.2,2.1,0.5L673.5,793.1z"/>
			</g>
		</g>
		<path class="st63" d="M205.9,789.4c-16.1-2.7-41.4-13.4-41.4-13.4c1.6,0,3.6,0.2,5.8,0.4c12.8,1.3,33.7,5.1,33.7,5.1
			s1.2,3.2,1.7,7.2C205.8,788.9,205.8,789.2,205.9,789.4z"/>
		<path class="st64" d="M295.3,780.4c-27.4-5.7-82.7-15.1-82.7-15.1l-3-2.5c2-0.3,4.1-0.6,6.3-0.8c2.4,0.1,19.7,1.3,35.9,5.1
			c0,0,0,0,0,0c14.1,3.4,28.2,8,39.7,12c1.2,0.4,2.5,0.8,3.6,1.3C295.2,780.2,295.2,780.3,295.3,780.4z"/>
		<path class="st63" d="M205.9,789.4c-16.1-2.7-41.4-13.4-41.4-13.4c1.6,0,3.6,0.2,5.8,0.4c11.9,3.1,31.2,10.6,35.4,12.3
			C205.8,788.9,205.8,789.2,205.9,789.4z"/>
		
			<ellipse transform="matrix(0.999 -4.364413e-02 4.364413e-02 0.999 -33.3744 9.5484)" class="st63" cx="202" cy="769.1" rx="24" ry="8.1"/>
		
			<ellipse transform="matrix(0.999 -4.551285e-02 4.551285e-02 0.999 -34.768 9.8786)" class="st65" cx="199.6" cy="768.5" rx="20.6" ry="7"/>
		
			<ellipse transform="matrix(0.999 -4.551285e-02 4.551285e-02 0.999 -34.7734 9.8322)" class="st63" cx="198.5" cy="768.6" rx="20.6" ry="7"/>
		<path class="st64" d="M214.6,772.3c-5.3,2.5-14.3,3.8-22.8,3.1c-10.8-0.8-16.5-4.6-12.8-8.4c1.5-1.5,4.3-2.8,7.8-3.8
			c-1.5,0.7-2.6,1.4-3.4,2.3c-3.7,3.8,2,7.6,12.8,8.4C202.6,774.4,209.4,773.8,214.6,772.3z"/>
		<path class="st65" d="M214.4,772.4c-5.3,2.4-14.3,3.7-22.6,3.1c-10.8-0.8-16.5-4.6-12.8-8.4c1-1,2.6-2,4.6-2.8
			c-1.5,0.7-2.7,1.5-3.6,2.3c-3.7,3.8,2,7.6,12.8,8.4C200.7,775.6,209,774.5,214.4,772.4z"/>
		<path class="st63" d="M277.4,789.4c0,0-1.6-0.2-4.2-0.4c21.1-1.9,19.4-8.1,18.3-10.1c1.2,0.4,2.5,0.8,3.6,1.3
			C302.9,788.8,277.4,789.4,277.4,789.4z"/>
		<polygon class="st63" points="223.1,770.5 227.6,771.5 225.1,773.5 219.5,772.4 		"/>
		<g>
			<ellipse class="st63" cx="244.2" cy="741.1" rx="3.1" ry="1.3"/>
			<path class="st63" d="M247.3,741.1c0,0.7-1.4,1.3-3.1,1.3c-0.6,0-1.2-0.1-1.7-0.2c0.2,0,0.4,0,0.6,0c1.7,0,3.1-0.6,3.1-1.3
				c0-0.5-0.5-0.9-1.3-1.1C246.2,739.9,247.3,740.5,247.3,741.1z"/>
		</g>
		<g>
			
				<ellipse transform="matrix(0.999 -4.526344e-02 4.526344e-02 0.999 -32.3725 12.3399)" class="st63" cx="256.3" cy="721" rx="3.1" ry="1.1"/>
			<path class="st63" d="M259.3,721.2c-0.6,0.6-2.4,0.9-4,0.8c-0.6-0.1-1.1-0.2-1.5-0.3c0.2,0,0.4,0.1,0.6,0.1
				c1.6,0.1,3.4-0.2,4-0.8c0.4-0.4,0.2-0.7-0.4-1C259.2,720.2,259.8,720.7,259.3,721.2z"/>
		</g>
		<g>
			<ellipse class="st63" cx="227.4" cy="740.5" rx="3.1" ry="1.3"/>
			<path class="st63" d="M230.5,740.5c0,0.7-1.4,1.3-3.1,1.3c-0.6,0-1.2-0.1-1.7-0.2c0.2,0,0.4,0,0.6,0c1.7,0,3.1-0.6,3.1-1.3
				c0-0.5-0.5-0.9-1.3-1.1C229.4,739.3,230.5,739.9,230.5,740.5z"/>
		</g>
		<path class="st63" d="M764,812.5c0,0-1.8,2.4-8.7,3.8c0,0-1.7-0.1-4.8-0.2c5.9-1.5,10.5-4.1,11.4-4.7
			C763.3,812.2,764,812.5,764,812.5z"/>
		<path class="st64" d="M222.2,712.1c-2.7-0.1-5.4-0.1-8-0.2l-8.4-2.5c0.2-0.1,0.4-0.1,0.4-0.1s2.8,0,6.9,0.1L222.2,712.1z"/>
		<path class="st64" d="M230,709.6l2.2,0.7l-1.7,1.7l-7.8-2.3l-0.3-0.1C224.8,709.5,227.5,709.6,230,709.6z"/>
		<path class="st64" d="M242.9,713.4c-3.4-0.4-6.9-0.7-10.3-0.9l1.7-1.6L242.9,713.4z"/>
		<path class="st64" d="M251.6,714.4c-1.4-0.2-2.9-0.4-4.4-0.5l0,0l-12.2-3.6l0.6-0.6c0,0,0.1,0,0.1,0L251.6,714.4z"/>
		<path class="st64" d="M253.4,711.1l0.4,0.8l-4.5-1.3C250.6,710.7,252,710.9,253.4,711.1z"/>
		<path class="st64" d="M269.9,716.7l-0.2,0l-12.8-3.8l-0.4-0.9l10.8,3.2C268.2,715.6,269.1,716.1,269.9,716.7z"/>
		
			<ellipse transform="matrix(0.9987 -5.106031e-02 5.106031e-02 0.9987 -39.4205 21.9284)" class="st63" cx="409.5" cy="782.5" rx="4.7" ry="0.6"/>
		
			<ellipse transform="matrix(0.9987 -5.106031e-02 5.106031e-02 0.9987 -39.1365 23.827)" class="st63" cx="446.8" cy="777.9" rx="4.7" ry="0.6"/>
	</g>
</g>
</svg>
